<?xml version="1.0" standalone="no"?>
<!DOCTYPE svg PUBLIC "-//W3C//DTD SVG 1.1//EN" "http://www.w3.org/Graphics/SVG/1.1/DTD/svg11.dtd" >
<svg xmlns="http://www.w3.org/2000/svg">
<metadata></metadata>
<defs>
<font id="razer_regularitalic" horiz-adv-x="1319" >
<font-face units-per-em="2048" ascent="1638" descent="-410" />
<missing-glyph horiz-adv-x="955" />
<glyph horiz-adv-x="2048" />
<glyph horiz-adv-x="2048" />
<glyph unicode="&#xd;" horiz-adv-x="955" />
<glyph unicode=" "  horiz-adv-x="955" />
<glyph unicode="&#x09;" horiz-adv-x="955" />
<glyph unicode="&#xa0;" horiz-adv-x="955" />
<glyph unicode="!" horiz-adv-x="409" d="M91 73v82q0 30 21.5 51.5t51.5 21.5h82q32 0 52.5 -22t20.5 -51v-82q0 -30 -20.5 -51.5t-52.5 -21.5h-82q-30 0 -51.5 21.5t-21.5 51.5zM91 528v537q0 30 21.5 51.5t51.5 21.5h82q32 0 52.5 -21.5t20.5 -51.5v-537q0 -30 -20.5 -51.5t-52.5 -21.5h-82q-30 0 -51.5 21.5 t-21.5 51.5z" />
<glyph unicode="&#x22;" horiz-adv-x="773" d="M91 755v310q0 30 21.5 51.5t51.5 21.5h82q30 0 51.5 -21.5t21.5 -51.5v-310q0 -30 -22 -51t-51 -21h-82q-30 0 -51.5 21.5t-21.5 50.5zM455 755v310q0 30 21.5 51.5t51.5 21.5h82q30 0 51.5 -21.5t21.5 -51.5v-310q0 -30 -22 -51t-51 -21h-82q-30 0 -51.5 21.5 t-21.5 50.5z" />
<glyph unicode="#" d="M91 300v82q0 30 21.5 51.5t51.5 21.5h82q30 0 51.5 21.5t21.5 51.5v82q0 30 -22 51.5t-51 21.5h-82q-30 0 -51.5 21.5t-21.5 50.5v82q0 30 21.5 51.5t51.5 21.5h82q30 0 51.5 21.5t21.5 51.5v82q0 30 21.5 51.5t50.5 21.5h82q30 0 51.5 -21.5t21.5 -51.5v-82 q0 -30 21.5 -51.5t51.5 -21.5h82q32 0 52.5 21.5t20.5 51.5v82q0 30 21.5 51.5t51.5 21.5h81q32 0 52.5 -21.5t20.5 -51.5v-82q0 -30 21.5 -51.5t51.5 -21.5h82q32 0 52.5 -21.5t20.5 -51.5v-82q0 -30 -20.5 -51t-52.5 -21h-82q-30 0 -51.5 -22t-21.5 -51v-82 q0 -30 21.5 -51.5t51.5 -21.5h82q32 0 52.5 -21.5t20.5 -51.5v-82q0 -30 -20.5 -51t-52.5 -21h-82q-30 0 -51.5 -22t-21.5 -51v-82q0 -30 -20.5 -51.5t-52.5 -21.5h-81q-30 0 -51.5 21.5t-21.5 51.5v82q0 30 -20.5 51.5t-52.5 21.5h-82q-30 0 -51.5 -22t-21.5 -51v-82 q0 -30 -21.5 -51.5t-51.5 -21.5h-82q-30 0 -51 21.5t-21 51.5v82q0 30 -22 51.5t-51 21.5h-82q-30 0 -51.5 21.5t-21.5 50.5zM546 528q0 -30 21.5 -51.5t51.5 -21.5h82q32 0 52.5 21.5t20.5 51.5v82q0 30 -20.5 51.5t-52.5 21.5h-82q-30 0 -51.5 -22t-21.5 -51v-82z" />
<glyph unicode="$" horiz-adv-x="1317" d="M91 73v79q0 32 21.5 52.5t51.5 20.5h762q32 0 52.5 22t20.5 53v82q0 30 -20.5 51.5t-52.5 21.5h-762q-30 0 -51.5 20.5t-21.5 52.5v537q0 30 21.5 51.5t51.5 21.5h82q30 0 51.5 21.5t21.5 51.5v82q0 30 21.5 51t50.5 21h80q32 0 52.5 -21.5t20.5 -50.5v-82 q0 -30 21.5 -51.5t53.5 -21.5h82q30 0 51.5 21.5t21.5 51.5v82q0 30 20.5 51t52.5 21h79q32 0 52.5 -21.5t20.5 -50.5v-82q0 -30 21.5 -51.5t51.5 -21.5h82q30 0 51.5 -21.5t21.5 -51.5v-80q0 -32 -22 -52.5t-51 -20.5h-763q-30 0 -51 -21.5t-21 -53.5v-82q0 -30 21.5 -51 t50.5 -21h763q30 0 51.5 -20.5t21.5 -52.5v-537q0 -30 -22 -51.5t-51 -21.5h-82q-30 0 -51.5 -21.5t-21.5 -51.5v-82q0 -30 -20.5 -51.5t-52.5 -21.5h-79q-32 0 -52.5 22t-20.5 51v82q0 30 -22 51.5t-51 21.5h-82q-32 0 -53.5 -21.5t-21.5 -51.5v-82q0 -30 -20.5 -51.5 t-52.5 -21.5h-80q-30 0 -51 22t-21 51v82q0 30 -22 51.5t-51 21.5h-82q-30 0 -51.5 21.5t-21.5 51.5z" />
<glyph unicode="%" horiz-adv-x="1317" d="M91 983v82q0 30 21.5 51.5t51.5 21.5h82q32 0 52.5 -21.5t20.5 -51.5v-82q0 -32 -20.5 -52.5t-52.5 -20.5h-82q-30 0 -51.5 20.5t-21.5 52.5zM319 73v537q0 30 21.5 51.5t53.5 21.5h305q32 0 52 21.5t20 50.5v310q0 30 22 51.5t54 21.5h79q30 0 51.5 -21.5t21.5 -51.5 v-537q0 -30 -21.5 -51.5t-51.5 -21.5h-307q-32 0 -52.5 -21.5t-20.5 -51.5v-309q0 -30 -21.5 -51.5t-53.5 -21.5h-77q-32 0 -53.5 21.5t-21.5 51.5zM999 73v82q0 30 21.5 51.5t51.5 21.5h82q30 0 51.5 -22t21.5 -51v-82q0 -30 -22 -51.5t-51 -21.5h-82q-30 0 -51.5 21.5 t-21.5 51.5z" />
<glyph unicode="&#x26;" d="M91 73v537q0 30 21.5 51.5t51.5 21.5h309q30 0 51.5 21.5t21.5 50.5v310q0 30 21.5 51.5t51.5 21.5h537q30 0 51.5 -21.5t21.5 -51.5v-537q0 -30 -21.5 -51.5t-51.5 -21.5h-309q-30 0 -51.5 -21.5t-21.5 -51.5v-79q0 -32 21.5 -53.5t51.5 -21.5h309q30 0 51.5 -20.5 t21.5 -52.5v-82q0 -30 -21.5 -51.5t-51.5 -21.5h-992q-30 0 -51.5 21.5t-21.5 51.5zM319 303q0 -32 21.5 -53.5t53.5 -21.5h79q30 0 51.5 21.5t21.5 53.5v79q0 30 -21.5 51.5t-51.5 21.5h-79q-32 0 -53.5 -21.5t-21.5 -51.5v-79zM774 755q0 -30 21.5 -51t51.5 -21h79 q32 0 53.5 21t21.5 51v80q0 32 -21.5 53.5t-53.5 21.5h-79q-30 0 -51.5 -21.5t-21.5 -53.5v-80z" />
<glyph unicode="'" horiz-adv-x="409" d="M91 755v310q0 30 21.5 51.5t51.5 21.5h82q30 0 51.5 -21.5t21.5 -51.5v-310q0 -30 -22 -51t-51 -21h-82q-30 0 -51.5 21.5t-21.5 50.5z" />
<glyph unicode="(" horiz-adv-x="639" d="M91 -382v1902q0 30 21.5 51.5t51.5 21.5h309q32 0 53.5 -21.5t21.5 -51.5v-82q0 -32 -21.5 -52.5t-53.5 -20.5h-79q-32 0 -52.5 -21.5t-20.5 -53.5v-1442q0 -32 20.5 -54t52.5 -22h79q32 0 53.5 -20.5t21.5 -51.5v-82q0 -30 -21.5 -51.5t-53.5 -21.5h-309 q-30 0 -51.5 21.5t-21.5 51.5z" />
<glyph unicode=")" horiz-adv-x="639" d="M91 -300q0 32 21.5 52t51.5 20h82q30 0 51.5 22t21.5 54v1442q0 32 -22 53.5t-51 21.5h-82q-30 0 -51.5 20.5t-21.5 52.5v82q0 30 21.5 51.5t51.5 21.5h309q32 0 53.5 -21.5t21.5 -51.5v-1902q0 -30 -21.5 -51.5t-53.5 -21.5h-309q-30 0 -51.5 21.5t-21.5 51.5v82z" />
<glyph unicode="*" horiz-adv-x="764" d="M91 687q0 30 21 50l59 59q20 20 20 51q0 32 -20 52l-59 57q-20 23 -21 52q0 30 21 52l59 57q20 20 50 21q32 0 52 -21l57 -57q23 -23 52 -22q30 0 53 22l57 57q20 20 52 21q30 0 52 -21l57 -57q20 -23 21 -52q0 -30 -21 -52l-57 -57q-23 -20 -23 -52q0 -30 23 -51l57 -59 q20 -20 21 -50q0 -32 -21 -52l-57 -57q-23 -23 -52 -23q-32 0 -52 23l-57 57q-23 20 -53 20t-52 -20l-57 -57q-20 -23 -52 -23q-30 0 -50 23l-59 57q-20 20 -21 52z" />
<glyph unicode="+" horiz-adv-x="864" d="M91 528v82q0 30 21.5 51.5t51.5 21.5h82q30 0 51.5 21.5t21.5 50.5v82q0 30 21.5 51.5t50.5 21.5h82q30 0 51.5 -21.5t21.5 -51.5v-82q0 -30 21.5 -51t51.5 -21h82q30 0 51.5 -22t21.5 -51v-82q0 -30 -22 -51.5t-51 -21.5h-82q-30 0 -51.5 -21.5t-21.5 -51.5v-82 q0 -30 -21.5 -51t-51.5 -21h-82q-30 0 -51 21.5t-21 50.5v82q0 30 -22 51.5t-51 21.5h-82q-30 0 -51.5 21.5t-21.5 51.5z" />
<glyph unicode="," horiz-adv-x="637" d="M91 73v82q0 30 21.5 51.5t51.5 21.5h82q30 0 51.5 21.5t21.5 50.5v82q0 30 21.5 51.5t50.5 21.5h82q30 0 51.5 -21.5t21.5 -51.5v-309q0 -30 -21.5 -51.5t-51.5 -21.5h-309q-30 0 -51.5 21.5t-21.5 51.5z" />
<glyph unicode="-" horiz-adv-x="864" d="M91 528v82q0 30 21.5 51.5t51.5 21.5h537q30 0 51.5 -22t21.5 -51v-82q0 -30 -22 -51.5t-51 -21.5h-537q-30 0 -51.5 21.5t-21.5 51.5z" />
<glyph unicode="." horiz-adv-x="409" d="M91 73v82q0 30 21.5 51.5t51.5 21.5h82q32 0 52.5 -22t20.5 -51v-82q0 -30 -20.5 -51.5t-52.5 -21.5h-82q-30 0 -51.5 21.5t-21.5 51.5z" />
<glyph unicode="/" horiz-adv-x="1258" d="M91 162q0 30 21 50l873 873q20 23 53 23q30 0 52 -23l57 -56q20 -20 20 -51q0 -29 -20 -52l-876 -874q-20 -23 -50 -22q-32 0 -53 22l-56 57q-20 20 -21 53z" />
<glyph unicode="0" d="M91 73v992q0 30 21.5 51.5t51.5 21.5h992q30 0 51.5 -21.5t21.5 -51.5v-992q0 -30 -21.5 -51.5t-51.5 -21.5h-992q-30 0 -51.5 21.5t-21.5 51.5zM319 303q0 -32 21.5 -53.5t53.5 -21.5h532q32 0 53.5 21.5t21.5 53.5v532q0 32 -21.5 53.5t-53.5 21.5h-532 q-32 0 -53.5 -21.5t-21.5 -53.5v-532z" />
<glyph unicode="1" horiz-adv-x="1324" d="M91 73v79q0 32 21.5 52.5t51.5 20.5h539q30 0 51.5 22t21.5 53v537q0 32 -21.5 53.5t-51.5 21.5h-539q-30 0 -51.5 20.5t-21.5 52.5v80q0 30 21.5 51.5t51.5 21.5h767q32 0 52.5 -21.5t20.5 -51.5v-765q0 -32 21.5 -53.5t53.5 -21.5h82q30 0 51 -20.5t21 -52.5v-79 q0 -30 -21.5 -51.5t-50.5 -21.5h-997q-30 0 -51.5 21.5t-21.5 51.5z" />
<glyph unicode="2" d="M91 73v537q0 32 21.5 53.5t51.5 21.5h764q30 0 51.5 20.5t21.5 52.5v82q0 30 -21.5 51t-51.5 21h-764q-30 0 -51.5 22t-21.5 51v80q0 30 21.5 51.5t51.5 21.5h992q30 0 51.5 -21.5t21.5 -51.5v-537q0 -32 -21.5 -53.5t-51.5 -21.5h-765q-30 0 -51 -20.5t-21 -52.5v-82 q0 -30 21.5 -51.5t50.5 -21.5h765q30 0 51.5 -21.5t21.5 -51.5v-79q0 -30 -21.5 -51.5t-51.5 -21.5h-992q-30 0 -51.5 21.5t-21.5 51.5z" />
<glyph unicode="3" d="M91 73v79q0 30 21.5 51.5t51.5 21.5h764q30 0 51.5 22t21.5 51v82q0 32 -21.5 52.5t-51.5 20.5h-764q-30 0 -51.5 21.5t-21.5 53.5v82q0 32 21.5 53.5t51.5 21.5h764q30 0 51.5 20.5t21.5 52.5v82q0 30 -21.5 51t-51.5 21h-764q-30 0 -51.5 22t-21.5 51v80 q0 30 21.5 51.5t51.5 21.5h992q30 0 51.5 -21.5t21.5 -51.5v-992q0 -30 -21.5 -51.5t-51.5 -21.5h-992q-30 0 -51.5 21.5t-21.5 51.5z" />
<glyph unicode="4" d="M91 300v765q0 30 21.5 51.5t51.5 21.5h82q30 0 51.5 -21.5t21.5 -51.5v-537q0 -30 21.5 -51.5t50.5 -21.5h537q30 0 51.5 21.5t21.5 51.5v537q0 30 21.5 51.5t51.5 21.5h82q30 0 51.5 -21.5t21.5 -51.5v-1220q0 -30 -21.5 -51.5t-51.5 -21.5h-82q-30 0 -51.5 22t-21.5 51 v310q0 30 -21.5 51.5t-51.5 21.5h-764q-30 0 -51.5 21.5t-21.5 50.5z" />
<glyph unicode="5" d="M91 73v82q0 32 21.5 52.5t51.5 20.5h762q32 0 53.5 21.5t21.5 53.5v79q0 30 -21.5 51.5t-53.5 21.5h-762q-30 0 -51.5 21.5t-21.5 51.5v537q0 30 21.5 51.5t51.5 21.5h992q30 0 51.5 -21.5t21.5 -51.5v-82q0 -32 -21.5 -52.5t-51.5 -20.5h-762q-32 0 -53.5 -21.5 t-21.5 -53.5v-80q0 -30 21.5 -51t53.5 -21h762q30 0 51.5 -22t21.5 -51v-537q0 -30 -21.5 -51.5t-51.5 -21.5h-992q-30 0 -51.5 21.5t-21.5 51.5z" />
<glyph unicode="6" d="M91 73v992q0 30 21.5 51.5t51.5 21.5h992q30 0 51.5 -21.5t21.5 -51.5v-82q0 -32 -21.5 -52.5t-51.5 -20.5h-762q-32 0 -53.5 -21.5t-21.5 -53.5v-80q0 -30 21.5 -51t53.5 -21h762q30 0 51.5 -22t21.5 -51v-537q0 -30 -21.5 -51.5t-51.5 -21.5h-992q-30 0 -51.5 21.5 t-21.5 51.5zM319 303q0 -32 21.5 -53.5t53.5 -21.5h532q32 0 53.5 21.5t21.5 53.5v79q0 30 -21.5 51.5t-53.5 21.5h-532q-32 0 -53.5 -21.5t-21.5 -51.5v-79z" />
<glyph unicode="7" d="M91 983v82q0 30 21.5 51.5t51.5 21.5h992q30 0 51.5 -21.5t21.5 -51.5v-992q0 -30 -21.5 -51.5t-51.5 -21.5h-82q-30 0 -51.5 21.5t-21.5 51.5v764q0 30 -21.5 51.5t-51.5 21.5h-764q-30 0 -51.5 21.5t-21.5 51.5z" />
<glyph unicode="8" d="M91 73v992q0 30 21.5 51.5t51.5 21.5h992q30 0 51.5 -21.5t21.5 -51.5v-992q0 -30 -21.5 -51.5t-51.5 -21.5h-992q-30 0 -51.5 21.5t-21.5 51.5zM319 303q0 -32 21.5 -53.5t53.5 -21.5h532q32 0 53.5 21.5t21.5 53.5v79q0 30 -21.5 51.5t-53.5 21.5h-532 q-32 0 -53.5 -21.5t-21.5 -51.5v-79zM319 755q0 -30 21.5 -51t53.5 -21h532q32 0 53.5 21t21.5 51v80q0 32 -21.5 53.5t-53.5 21.5h-532q-32 0 -53.5 -21.5t-21.5 -53.5v-80z" />
<glyph unicode="9" d="M91 73v82q0 32 21.5 52.5t51.5 20.5h762q32 0 53.5 21.5t21.5 53.5v79q0 30 -21.5 51.5t-53.5 21.5h-762q-30 0 -51.5 21.5t-21.5 51.5v537q0 30 21.5 51.5t51.5 21.5h992q30 0 51.5 -21.5t21.5 -51.5v-992q0 -30 -21.5 -51.5t-51.5 -21.5h-992q-30 0 -51.5 21.5 t-21.5 51.5zM319 755q0 -30 21.5 -51t53.5 -21h532q32 0 53.5 21t21.5 51v80q0 32 -21.5 53.5t-53.5 21.5h-532q-32 0 -53.5 -21.5t-21.5 -53.5v-80z" />
<glyph unicode=":" horiz-adv-x="409" d="M91 300v82q0 30 21.5 51.5t51.5 21.5h82q32 0 52.5 -21.5t20.5 -51.5v-82q0 -30 -20.5 -51t-52.5 -21h-82q-30 0 -51.5 21.5t-21.5 50.5zM91 755v82q0 30 21.5 51.5t51.5 21.5h82q32 0 52.5 -21.5t20.5 -51.5v-82q0 -30 -20.5 -51t-52.5 -21h-82q-30 0 -51.5 21.5 t-21.5 50.5z" />
<glyph unicode=";" horiz-adv-x="409" d="M91 73v309q0 30 21.5 51.5t51.5 21.5h82q32 0 52.5 -21.5t20.5 -51.5v-309q0 -30 -20.5 -51.5t-52.5 -21.5h-82q-30 0 -51.5 21.5t-21.5 51.5zM91 755v82q0 30 21.5 51.5t51.5 21.5h82q32 0 52.5 -21.5t20.5 -51.5v-82q0 -30 -20.5 -51t-52.5 -21h-82q-30 0 -51.5 21.5 t-21.5 50.5z" />
<glyph unicode="&#x3c;" horiz-adv-x="764" d="M91 569q0 30 21 52l380 378q20 23 52 23q30 0 50 -23l59 -57q20 -23 21 -52q0 -30 -21 -53l-221 -216q-20 -23 -20 -52q0 -30 20 -52l221 -217q20 -23 21 -52q-1 -29 -21 -52l-59 -57q-20 -23 -50 -23q-32 0 -52 23l-380 378q-20 23 -21 52z" />
<glyph unicode="=" horiz-adv-x="864" d="M91 300v82q0 30 21.5 51.5t51.5 21.5h537q30 0 51.5 -21.5t21.5 -51.5v-82q0 -30 -22 -51t-51 -21h-537q-30 0 -51.5 21.5t-21.5 50.5zM91 755v82q0 30 21.5 51.5t51.5 21.5h537q30 0 51.5 -21.5t21.5 -51.5v-82q0 -30 -22 -51t-51 -21h-537q-30 0 -51.5 21.5t-21.5 50.5 z" />
<glyph unicode="&#x3e;" horiz-adv-x="764" d="M91 248q0 30 21 52l220 217q20 23 21 52q0 30 -21 52l-220 216q-20 23 -21 53q0 30 21 52l59 57q20 23 52 23q30 0 50 -23l380 -378q20 -23 21 -52q-1 -29 -21 -52l-380 -378q-20 -23 -50 -23q-32 0 -52 23l-59 57q-20 23 -21 52z" />
<glyph unicode="?" d="M91 758v307q0 30 21.5 51.5t51.5 21.5h992q30 0 51.5 -21.5t21.5 -51.5v-537q0 -32 -21.5 -53.5t-51.5 -21.5h-537q-30 0 -51.5 21.5t-21.5 53.5v82q0 32 21.5 53.5t51.5 21.5h309q30 0 51.5 20.5t21.5 52.5v82q0 30 -21.5 51t-51.5 21h-537q-30 0 -51 -21.5t-21 -50.5 v-82q0 -32 -22 -52.5t-51 -20.5h-82q-30 0 -51.5 20.5t-21.5 52.5zM546 73v79q0 30 21.5 51.5t51.5 21.5h82q30 0 51.5 -21.5t21.5 -51.5v-79q0 -30 -22 -51.5t-51 -21.5h-82q-30 0 -51.5 21.5t-21.5 51.5z" />
<glyph unicode="@" horiz-adv-x="1324" d="M91 73v992q0 30 21.5 51.5t51.5 21.5h997q30 0 51 -21.5t21 -51.5v-537q0 -32 -21.5 -53.5t-50.5 -21.5h-542q-30 0 -51.5 21.5t-21.5 53.5v312q0 30 -20.5 51t-52.5 21h-82q-30 0 -51 -21.5t-21 -50.5v-542q0 -30 21.5 -51.5t50.5 -21.5h770q30 0 51 -21.5t21 -51.5v-79 q0 -30 -21.5 -51.5t-50.5 -21.5h-997q-30 0 -51.5 21.5t-21.5 51.5zM776 758q0 -32 21.5 -52.5t53.5 -20.5h82q30 0 51.5 20.5t21.5 52.5v82q0 30 -21.5 51t-51.5 21h-82q-32 0 -53.5 -21.5t-21.5 -50.5v-82z" />
<glyph unicode="A" d="M91 73v537q0 32 21.5 53.5t51.5 21.5h764q30 0 51.5 20.5t21.5 52.5v82q0 30 -21.5 51t-51.5 21h-764q-30 0 -51.5 22t-21.5 51v80q0 30 21.5 51.5t51.5 21.5h992q30 0 51.5 -21.5t21.5 -51.5v-992q0 -30 -21.5 -51.5t-51.5 -21.5h-992q-30 0 -51.5 21.5t-21.5 51.5z M319 298q0 -30 21.5 -51.5t50.5 -21.5h537q30 0 51.5 21.5t21.5 51.5v82q0 32 -21.5 52.5t-51.5 20.5h-537q-30 0 -51 -20.5t-21 -52.5v-82z" />
<glyph unicode="B" d="M91 73v1447q0 30 21.5 51.5t51.5 21.5h82q32 0 52.5 -21.5t20.5 -51.5v-309q0 -30 21.5 -51.5t53.5 -21.5h762q30 0 51.5 -21.5t21.5 -51.5v-992q0 -30 -21.5 -51.5t-51.5 -21.5h-992q-30 0 -51.5 21.5t-21.5 51.5zM319 303q0 -32 21.5 -53.5t53.5 -21.5h532 q32 0 52.5 21.5t20.5 53.5v532q0 32 -20.5 52.5t-52.5 20.5h-532q-32 0 -53.5 -20.5t-21.5 -52.5v-532z" />
<glyph unicode="C" horiz-adv-x="1324" d="M91 73v992q0 30 21.5 51.5t51.5 21.5h997q30 0 51 -21.5t21 -51.5v-80q0 -32 -21.5 -52.5t-50.5 -20.5h-767q-32 0 -53.5 -21.5t-21.5 -53.5v-537q0 -32 21.5 -53.5t53.5 -21.5h767q30 0 51 -20.5t21 -52.5v-79q0 -30 -21.5 -51.5t-50.5 -21.5h-997q-30 0 -51.5 21.5 t-21.5 51.5z" />
<glyph unicode="D" d="M91 73v992q0 30 21.5 51.5t51.5 21.5h762q32 0 52.5 21.5t20.5 51.5v309q0 30 21.5 51.5t53.5 21.5h82q30 0 51.5 -21.5t21.5 -51.5v-1447q0 -30 -21.5 -51.5t-51.5 -21.5h-992q-30 0 -51.5 21.5t-21.5 51.5zM319 303q0 -32 21.5 -53.5t53.5 -21.5h532q32 0 52.5 21.5 t20.5 53.5v532q0 32 -20.5 52.5t-52.5 20.5h-532q-32 0 -53.5 -20.5t-21.5 -52.5v-532z" />
<glyph unicode="E" d="M91 73v992q0 30 21.5 51.5t51.5 21.5h992q30 0 51.5 -21.5t21.5 -51.5v-537q0 -30 -21.5 -51.5t-51.5 -21.5h-762q-32 0 -53.5 -21.5t-21.5 -51.5v-79q0 -32 21.5 -53.5t53.5 -21.5h762q30 0 51.5 -20.5t21.5 -52.5v-82q0 -30 -21.5 -51.5t-51.5 -21.5h-992 q-30 0 -51.5 21.5t-21.5 51.5zM319 755q0 -30 21.5 -51t53.5 -21h532q32 0 53.5 21t21.5 51v80q0 32 -21.5 53.5t-53.5 21.5h-532q-32 0 -53.5 -21.5t-21.5 -53.5v-80z" />
<glyph unicode="F" d="M91 73v992q0 30 21.5 51.5t51.5 21.5h992q30 0 51.5 -21.5t21.5 -51.5v-80q0 -30 -21.5 -51.5t-51.5 -21.5h-765q-30 0 -51 -21.5t-21 -50.5v-82q0 -32 21.5 -52.5t50.5 -20.5h765q30 0 51.5 -21.5t21.5 -53.5v-82q0 -30 -21.5 -51.5t-51.5 -21.5h-765q-30 0 -51 -21.5 t-21 -51.5v-309q0 -30 -22 -51.5t-51 -21.5h-82q-30 0 -51.5 21.5t-21.5 51.5z" />
<glyph unicode="G" d="M91 73v992q0 30 21.5 51.5t51.5 21.5h992q32 0 52.5 -21.5t20.5 -51.5v-80q0 -30 -20.5 -51.5t-52.5 -21.5h-765q-30 0 -51 -21.5t-21 -50.5v-542q0 -30 21.5 -51.5t50.5 -21.5h537q32 0 52.5 22t20.5 51v82q0 32 -20.5 52.5t-52.5 20.5h-309q-30 0 -51.5 21.5 t-21.5 53.5v82q0 32 21.5 53.5t51.5 21.5h537q32 0 52.5 -21.5t20.5 -53.5v-537q0 -30 -20.5 -51.5t-52.5 -21.5h-992q-30 0 -51.5 21.5t-21.5 51.5z" />
<glyph unicode="H" d="M91 73v1447q0 30 21.5 51.5t51.5 21.5h82q30 0 51.5 -21.5t21.5 -51.5v-309q0 -30 21.5 -51.5t50.5 -21.5h765q30 0 51.5 -21.5t21.5 -51.5v-992q0 -30 -21.5 -51.5t-51.5 -21.5h-82q-30 0 -51.5 21.5t-21.5 51.5v764q0 30 -21.5 51.5t-51.5 21.5h-537q-30 0 -51 -21.5 t-21 -51.5v-764q0 -30 -22 -51.5t-51 -21.5h-82q-30 0 -51.5 21.5t-21.5 51.5z" />
<glyph unicode="I" horiz-adv-x="409" d="M91 73v992q0 30 21.5 51.5t51.5 21.5h82q32 0 52.5 -21.5t20.5 -51.5v-992q0 -30 -20.5 -51.5t-52.5 -21.5h-82q-30 0 -51.5 21.5t-21.5 51.5z" />
<glyph unicode="J" d="M91 73v309q0 30 21.5 51.5t51.5 21.5h82q30 0 51.5 -21.5t21.5 -51.5v-82q0 -30 21.5 -51t50.5 -21h537q30 0 51.5 21.5t21.5 50.5v765q0 30 21.5 51.5t51.5 21.5h82q30 0 51.5 -21.5t21.5 -51.5v-992q0 -30 -21.5 -51.5t-51.5 -21.5h-992q-30 0 -51.5 21.5t-21.5 51.5z " />
<glyph unicode="K" horiz-adv-x="1290" d="M91 73v992q0 30 21.5 51.5t51.5 21.5h82q30 0 51.5 -21.5t21.5 -51.5v-603q0 -39 22 -39q14 0 30 18l644 644q23 23 52 23q30 0 53 -23l56 -54q23 -23 23 -53t-23 -52l-302 -305q-23 -23 -23 -52q0 -30 23 -52l302 -303q23 -23 23 -52q0 -33 -23 -53l-54 -57 q-23 -23 -52 -22q-30 0 -53 22l-305 305q-23 23 -52 23q-30 0 -52 -23l-305 -305q-52 -52 -126 -52h-13q-30 0 -51.5 21.5t-21.5 51.5z" />
<glyph unicode="L" d="M91 73v992q0 30 21.5 51.5t51.5 21.5h82q30 0 51.5 -21.5t21.5 -51.5v-765q0 -30 21.5 -51t50.5 -21h765q30 0 51.5 -22t21.5 -51v-82q0 -30 -21.5 -51.5t-51.5 -21.5h-992q-30 0 -51.5 21.5t-21.5 51.5z" />
<glyph unicode="M" horiz-adv-x="1324" d="M91 73v992q0 30 21.5 51.5t51.5 21.5h997q30 0 51 -21.5t21 -51.5v-992q0 -30 -21.5 -51.5t-50.5 -21.5h-82q-30 0 -51.5 21.5t-21.5 51.5v764q0 30 -21.5 51.5t-51.5 21.5h-82q-32 0 -53.5 -21.5t-21.5 -51.5v-764q0 -30 -20.5 -51.5t-52.5 -21.5h-84q-30 0 -51.5 21.5 t-21.5 51.5v764q0 30 -20.5 51.5t-52.5 21.5h-82q-30 0 -51 -21.5t-21 -51.5v-764q0 -30 -22 -51.5t-51 -21.5h-82q-30 0 -51.5 21.5t-21.5 51.5z" />
<glyph unicode="N" d="M91 73v992q0 30 21.5 51.5t51.5 21.5h992q30 0 51.5 -21.5t21.5 -51.5v-992q0 -30 -21.5 -51.5t-51.5 -21.5h-82q-30 0 -51.5 21.5t-21.5 51.5v764q0 30 -21.5 51.5t-51.5 21.5h-537q-30 0 -51 -21.5t-21 -51.5v-764q0 -30 -22 -51.5t-51 -21.5h-82q-30 0 -51.5 21.5 t-21.5 51.5z" />
<glyph unicode="O" d="M91 73v992q0 30 21.5 51.5t51.5 21.5h992q30 0 51.5 -21.5t21.5 -51.5v-992q0 -30 -21.5 -51.5t-51.5 -21.5h-992q-30 0 -51.5 21.5t-21.5 51.5zM319 303q0 -32 21.5 -53.5t53.5 -21.5h532q32 0 53.5 21.5t21.5 53.5v532q0 32 -21.5 53.5t-53.5 21.5h-532 q-32 0 -53.5 -21.5t-21.5 -53.5v-532z" />
<glyph unicode="P" d="M91 -382v1447q0 30 21.5 51.5t51.5 21.5h992q30 0 51.5 -21.5t21.5 -51.5v-992q0 -30 -21.5 -51.5t-51.5 -21.5h-762q-32 0 -53.5 -21.5t-21.5 -51.5v-309q0 -30 -20.5 -51.5t-52.5 -21.5h-82q-30 0 -51.5 21.5t-21.5 51.5zM319 303q0 -32 21.5 -52.5t53.5 -20.5h532 q32 0 52.5 20.5t20.5 52.5v532q0 32 -20.5 53.5t-52.5 21.5h-532q-32 0 -53.5 -21.5t-21.5 -53.5v-532z" />
<glyph unicode="Q" horiz-adv-x="1322" d="M91 71v994q0 30 21.5 51.5t51.5 21.5h994q30 0 51.5 -21.5t21.5 -51.5v-994q0 -30 -21.5 -51.5t-51.5 -21.5h-309q-30 0 -51.5 -22t-21.5 -51v-77q0 -30 21.5 -51.5t51.5 -21.5h79q30 0 51.5 -22t21.5 -53v-82q0 -30 -21.5 -51.5t-51.5 -21.5h-309q-30 0 -51.5 21.5 t-21.5 51.5v307q0 30 -21.5 51.5t-51.5 21.5h-309q-30 0 -51.5 21.5t-21.5 51.5zM321 300q0 -30 21.5 -51t51.5 -21h534q30 0 51.5 21t21.5 51v535q0 30 -21.5 51.5t-51.5 21.5h-534q-30 0 -51.5 -21.5t-21.5 -51.5v-535z" />
<glyph unicode="R" d="M91 73v992q0 30 21.5 51.5t51.5 21.5h992q30 0 51.5 -21.5t21.5 -51.5v-82q0 -30 -21.5 -51.5t-51.5 -21.5h-765q-30 0 -51 -21.5t-21 -51.5v-764q0 -30 -22 -51.5t-51 -21.5h-82q-30 0 -51.5 21.5t-21.5 51.5z" />
<glyph unicode="S" d="M91 73v79q0 30 21.5 51.5t51.5 21.5h764q30 0 51.5 22t21.5 51v82q0 32 -21.5 52.5t-51.5 20.5h-764q-30 0 -51.5 21.5t-21.5 53.5v537q0 30 21.5 51.5t51.5 21.5h992q30 0 51.5 -21.5t21.5 -51.5v-80q0 -30 -21.5 -51.5t-51.5 -21.5h-765q-30 0 -51 -21.5t-21 -50.5v-82 q0 -32 21.5 -52.5t50.5 -20.5h765q30 0 51.5 -21.5t21.5 -53.5v-537q0 -30 -21.5 -51.5t-51.5 -21.5h-992q-30 0 -51.5 21.5t-21.5 51.5z" />
<glyph unicode="T" d="M91 983v82q0 30 21.5 51.5t51.5 21.5h992q30 0 51.5 -21.5t21.5 -51.5v-82q0 -30 -21.5 -51.5t-51.5 -21.5h-309q-30 0 -51.5 -21.5t-21.5 -51.5v-764q0 -30 -22 -51.5t-51 -21.5h-82q-30 0 -51.5 21.5t-21.5 51.5v764q0 30 -21.5 51.5t-51.5 21.5h-309q-30 0 -51.5 21.5 t-21.5 51.5z" />
<glyph unicode="U" d="M91 73v992q0 30 21.5 51.5t51.5 21.5h82q30 0 51.5 -21.5t21.5 -51.5v-765q0 -30 21.5 -51t50.5 -21h537q30 0 51.5 21.5t21.5 50.5v765q0 30 21.5 51.5t51.5 21.5h82q30 0 51.5 -21.5t21.5 -51.5v-992q0 -30 -21.5 -51.5t-51.5 -21.5h-992q-30 0 -51.5 21.5t-21.5 51.5z " />
<glyph unicode="V" horiz-adv-x="1267" d="M91 994q0 43 36 64l71 39q18 11 36 11q43 0 64 -38l300 -556q14 -25 35 -25q20 0 36 25l300 556q20 38 62 38h2q18 0 34 -11l71 -39q38 -20 38 -62q0 -22 -9 -38l-498 -899q-14 -25 -36 -25q-20 0 -35 25l-498 899q-9 16 -9 36z" />
<glyph unicode="W" d="M91 73v992q0 30 21.5 51.5t51.5 21.5h82q32 0 52.5 -21.5t20.5 -51.5v-762q0 -32 21.5 -53.5t53.5 -21.5h79q30 0 51.5 21.5t21.5 53.5v762q0 30 21.5 51.5t51.5 21.5h82q30 0 51.5 -21.5t21.5 -51.5v-762q0 -32 21.5 -53.5t51.5 -21.5h79q32 0 52.5 21.5t20.5 53.5v762 q0 30 21.5 51.5t53.5 21.5h82q30 0 51.5 -21.5t21.5 -51.5v-992q0 -30 -21.5 -51.5t-51.5 -21.5h-992q-30 0 -51.5 21.5t-21.5 51.5z" />
<glyph unicode="X" horiz-adv-x="1258" d="M91 162q0 30 21 50l304 305q20 20 21 52q0 30 -21 52l-304 303q-20 23 -21 52q0 30 21 53l59 56q20 23 52 23q30 0 50 -23l305 -302q20 -23 52 -23q30 0 50 23l305 302q20 23 53 23q30 0 52 -23l57 -56q20 -20 20 -51q0 -32 -20 -52l-305 -305q-20 -23 -21 -52 q0 -30 21 -52l305 -305q20 -20 20 -50q0 -32 -20 -53l-59 -57q-19 -22 -48 -22h-2q-32 0 -53 22l-305 303q-20 20 -50 20q-32 0 -52 -20l-307 -303q-19 -22 -48 -22h-2q-32 0 -53 22l-56 57q-20 20 -21 53z" />
<glyph unicode="Y" d="M91 73v992q0 30 21.5 51.5t51.5 21.5h82q30 0 51.5 -21.5t21.5 -51.5v-765q0 -30 21.5 -51t50.5 -21h537q30 0 51.5 21.5t21.5 50.5v765q0 30 21.5 51.5t51.5 21.5h82q30 0 51.5 -21.5t21.5 -51.5v-992q0 -30 -21.5 -51.5t-51.5 -21.5h-309q-30 0 -51.5 -21.5 t-21.5 -51.5v-309q0 -30 -22 -51.5t-51 -21.5h-82q-30 0 -51.5 21.5t-21.5 51.5v309q0 30 -21.5 51.5t-51.5 21.5h-309q-30 0 -51.5 21.5t-21.5 51.5z" />
<glyph unicode="Z" horiz-adv-x="1324" d="M91 73v13q0 75 52 126l647 648q18 16 18 30q0 23 -39 22h-605q-30 0 -51.5 20.5t-21.5 52.5v80q0 30 21.5 51.5t51.5 21.5h997q30 0 51 -21.5t21 -51.5v-11q0 -75 -52 -126l-651 -650q-16 -16 -16 -30q0 -23 39 -23h608q30 0 51 -20.5t21 -52.5v-79q0 -30 -21.5 -51.5 t-50.5 -21.5h-997q-30 0 -51.5 21.5t-21.5 51.5z" />
<glyph unicode="[" horiz-adv-x="639" d="M91 -382v1902q0 30 21.5 51.5t51.5 21.5h309q32 0 53.5 -21.5t21.5 -51.5v-82q0 -32 -21.5 -52.5t-53.5 -20.5h-79q-32 0 -52.5 -21.5t-20.5 -53.5v-1442q0 -32 20.5 -54t52.5 -22h79q32 0 53.5 -20.5t21.5 -51.5v-82q0 -30 -21.5 -51.5t-53.5 -21.5h-309 q-30 0 -51.5 21.5t-21.5 51.5z" />
<glyph unicode="\" horiz-adv-x="1258" d="M91 978q0 30 21 51l59 56q20 23 50 23q32 0 52 -23l874 -873q20 -20 20 -50q0 -33 -20 -53l-57 -57q-20 -23 -52 -22q-30 0 -50 22l-876 874q-20 23 -21 52z" />
<glyph unicode="]" horiz-adv-x="639" d="M91 -300q0 32 21.5 52t51.5 20h82q30 0 51.5 22t21.5 54v1442q0 32 -22 53.5t-51 21.5h-82q-30 0 -51.5 20.5t-21.5 52.5v82q0 30 21.5 51.5t51.5 21.5h309q32 0 53.5 -21.5t21.5 -51.5v-1902q0 -30 -21.5 -51.5t-53.5 -21.5h-309q-30 0 -51.5 21.5t-21.5 51.5v82z" />
<glyph unicode="^" horiz-adv-x="753" d="M91 853q0 30 21 50l213 214q20 20 50 21q30 0 53 -21l211 -214q23 -20 23 -50q0 -29 -20 -52l-57 -55q-20 -23 -50 -22q-30 0 -50 20l-57 59q-23 20 -53 21q-30 0 -50 -21l-56 -59q-20 -20 -51 -20q-30 0 -50 22l-56 55q-20 23 -21 52z" />
<glyph unicode="_" d="M91 -300q0 30 21.5 51t51.5 21h992q30 0 51.5 -21.5t21.5 -50.5v-82q0 -30 -21.5 -51.5t-51.5 -21.5h-992q-30 0 -51.5 21.5t-21.5 51.5v82z" />
<glyph unicode="`" horiz-adv-x="568" d="M91 1008q0 32 21 52l56 57q23 20 53 21q30 0 50 -21l186 -186q20 -20 21 -53q-1 -30 -21 -50l-57 -57q-20 -20 -50 -20q-32 0 -52 20l-186 187q-20 20 -21 50z" />
<glyph unicode="a" d="M91 73v537q0 32 21.5 53.5t51.5 21.5h764q30 0 51.5 20.5t21.5 52.5v82q0 30 -21.5 51t-51.5 21h-764q-30 0 -51.5 22t-21.5 51v80q0 30 21.5 51.5t51.5 21.5h992q30 0 51.5 -21.5t21.5 -51.5v-992q0 -30 -21.5 -51.5t-51.5 -21.5h-992q-30 0 -51.5 21.5t-21.5 51.5z M319 298q0 -30 21.5 -51.5t50.5 -21.5h537q30 0 51.5 21.5t21.5 51.5v82q0 32 -21.5 52.5t-51.5 20.5h-537q-30 0 -51 -20.5t-21 -52.5v-82z" />
<glyph unicode="b" d="M91 73v1447q0 30 21.5 51.5t51.5 21.5h82q32 0 52.5 -21.5t20.5 -51.5v-309q0 -30 21.5 -51.5t53.5 -21.5h762q30 0 51.5 -21.5t21.5 -51.5v-992q0 -30 -21.5 -51.5t-51.5 -21.5h-992q-30 0 -51.5 21.5t-21.5 51.5zM319 303q0 -32 21.5 -53.5t53.5 -21.5h532 q32 0 52.5 21.5t20.5 53.5v532q0 32 -20.5 52.5t-52.5 20.5h-532q-32 0 -53.5 -20.5t-21.5 -52.5v-532z" />
<glyph unicode="c" horiz-adv-x="1324" d="M91 73v992q0 30 21.5 51.5t51.5 21.5h997q30 0 51 -21.5t21 -51.5v-80q0 -32 -21.5 -52.5t-50.5 -20.5h-767q-32 0 -53.5 -21.5t-21.5 -53.5v-537q0 -32 21.5 -53.5t53.5 -21.5h767q30 0 51 -20.5t21 -52.5v-79q0 -30 -21.5 -51.5t-50.5 -21.5h-997q-30 0 -51.5 21.5 t-21.5 51.5z" />
<glyph unicode="d" d="M91 73v992q0 30 21.5 51.5t51.5 21.5h762q32 0 52.5 21.5t20.5 51.5v309q0 30 21.5 51.5t53.5 21.5h82q30 0 51.5 -21.5t21.5 -51.5v-1447q0 -30 -21.5 -51.5t-51.5 -21.5h-992q-30 0 -51.5 21.5t-21.5 51.5zM319 303q0 -32 21.5 -53.5t53.5 -21.5h532q32 0 52.5 21.5 t20.5 53.5v532q0 32 -20.5 52.5t-52.5 20.5h-532q-32 0 -53.5 -20.5t-21.5 -52.5v-532z" />
<glyph unicode="e" d="M91 73v992q0 30 21.5 51.5t51.5 21.5h992q30 0 51.5 -21.5t21.5 -51.5v-537q0 -30 -21.5 -51.5t-51.5 -21.5h-762q-32 0 -53.5 -21.5t-21.5 -51.5v-79q0 -32 21.5 -53.5t53.5 -21.5h762q30 0 51.5 -20.5t21.5 -52.5v-82q0 -30 -21.5 -51.5t-51.5 -21.5h-992 q-30 0 -51.5 21.5t-21.5 51.5zM319 755q0 -30 21.5 -51t53.5 -21h532q32 0 53.5 21t21.5 51v80q0 32 -21.5 53.5t-53.5 21.5h-532q-32 0 -53.5 -21.5t-21.5 -53.5v-80z" />
<glyph unicode="f" d="M91 73v992q0 30 21.5 51.5t51.5 21.5h992q30 0 51.5 -21.5t21.5 -51.5v-80q0 -30 -21.5 -51.5t-51.5 -21.5h-765q-30 0 -51 -21.5t-21 -50.5v-82q0 -32 21.5 -52.5t50.5 -20.5h765q30 0 51.5 -21.5t21.5 -53.5v-82q0 -30 -21.5 -51.5t-51.5 -21.5h-765q-30 0 -51 -21.5 t-21 -51.5v-309q0 -30 -22 -51.5t-51 -21.5h-82q-30 0 -51.5 21.5t-21.5 51.5z" />
<glyph unicode="g" d="M91 73v992q0 30 21.5 51.5t51.5 21.5h992q32 0 52.5 -21.5t20.5 -51.5v-80q0 -30 -20.5 -51.5t-52.5 -21.5h-765q-30 0 -51 -21.5t-21 -50.5v-542q0 -30 21.5 -51.5t50.5 -21.5h537q32 0 52.5 22t20.5 51v82q0 32 -20.5 52.5t-52.5 20.5h-309q-30 0 -51.5 21.5 t-21.5 53.5v82q0 32 21.5 53.5t51.5 21.5h537q32 0 52.5 -21.5t20.5 -53.5v-537q0 -30 -20.5 -51.5t-52.5 -21.5h-992q-30 0 -51.5 21.5t-21.5 51.5z" />
<glyph unicode="h" d="M91 73v1447q0 30 21.5 51.5t51.5 21.5h82q30 0 51.5 -21.5t21.5 -51.5v-309q0 -30 21.5 -51.5t50.5 -21.5h765q30 0 51.5 -21.5t21.5 -51.5v-992q0 -30 -21.5 -51.5t-51.5 -21.5h-82q-30 0 -51.5 21.5t-21.5 51.5v764q0 30 -21.5 51.5t-51.5 21.5h-537q-30 0 -51 -21.5 t-21 -51.5v-764q0 -30 -22 -51.5t-51 -21.5h-82q-30 0 -51.5 21.5t-21.5 51.5z" />
<glyph unicode="i" horiz-adv-x="409" d="M91 73v992q0 30 21.5 51.5t51.5 21.5h82q32 0 52.5 -21.5t20.5 -51.5v-992q0 -30 -20.5 -51.5t-52.5 -21.5h-82q-30 0 -51.5 21.5t-21.5 51.5z" />
<glyph unicode="j" d="M91 73v309q0 30 21.5 51.5t51.5 21.5h82q30 0 51.5 -21.5t21.5 -51.5v-82q0 -30 21.5 -51t50.5 -21h537q30 0 51.5 21.5t21.5 50.5v765q0 30 21.5 51.5t51.5 21.5h82q30 0 51.5 -21.5t21.5 -51.5v-992q0 -30 -21.5 -51.5t-51.5 -21.5h-992q-30 0 -51.5 21.5t-21.5 51.5z " />
<glyph unicode="k" horiz-adv-x="1290" d="M91 73v992q0 30 21.5 51.5t51.5 21.5h82q30 0 51.5 -21.5t21.5 -51.5v-603q0 -39 22 -39q14 0 30 18l644 644q23 23 52 23q30 0 53 -23l56 -54q23 -23 23 -53t-23 -52l-302 -305q-23 -23 -23 -52q0 -30 23 -52l302 -303q23 -23 23 -52q0 -33 -23 -53l-54 -57 q-23 -23 -52 -22q-30 0 -53 22l-305 305q-23 23 -52 23q-30 0 -52 -23l-305 -305q-52 -52 -126 -52h-13q-30 0 -51.5 21.5t-21.5 51.5z" />
<glyph unicode="l" d="M91 73v992q0 30 21.5 51.5t51.5 21.5h82q30 0 51.5 -21.5t21.5 -51.5v-765q0 -30 21.5 -51t50.5 -21h765q30 0 51.5 -22t21.5 -51v-82q0 -30 -21.5 -51.5t-51.5 -21.5h-992q-30 0 -51.5 21.5t-21.5 51.5z" />
<glyph unicode="m" horiz-adv-x="1324" d="M91 73v992q0 30 21.5 51.5t51.5 21.5h997q30 0 51 -21.5t21 -51.5v-992q0 -30 -21.5 -51.5t-50.5 -21.5h-82q-30 0 -51.5 21.5t-21.5 51.5v764q0 30 -21.5 51.5t-51.5 21.5h-82q-32 0 -53.5 -21.5t-21.5 -51.5v-764q0 -30 -20.5 -51.5t-52.5 -21.5h-84q-30 0 -51.5 21.5 t-21.5 51.5v764q0 30 -20.5 51.5t-52.5 21.5h-82q-30 0 -51 -21.5t-21 -51.5v-764q0 -30 -22 -51.5t-51 -21.5h-82q-30 0 -51.5 21.5t-21.5 51.5z" />
<glyph unicode="n" d="M91 73v992q0 30 21.5 51.5t51.5 21.5h992q30 0 51.5 -21.5t21.5 -51.5v-992q0 -30 -21.5 -51.5t-51.5 -21.5h-82q-30 0 -51.5 21.5t-21.5 51.5v764q0 30 -21.5 51.5t-51.5 21.5h-537q-30 0 -51 -21.5t-21 -51.5v-764q0 -30 -22 -51.5t-51 -21.5h-82q-30 0 -51.5 21.5 t-21.5 51.5z" />
<glyph unicode="o" d="M91 73v992q0 30 21.5 51.5t51.5 21.5h992q30 0 51.5 -21.5t21.5 -51.5v-992q0 -30 -21.5 -51.5t-51.5 -21.5h-992q-30 0 -51.5 21.5t-21.5 51.5zM319 303q0 -32 21.5 -53.5t53.5 -21.5h532q32 0 53.5 21.5t21.5 53.5v532q0 32 -21.5 53.5t-53.5 21.5h-532 q-32 0 -53.5 -21.5t-21.5 -53.5v-532z" />
<glyph unicode="p" d="M91 -382v1447q0 30 21.5 51.5t51.5 21.5h992q30 0 51.5 -21.5t21.5 -51.5v-992q0 -30 -21.5 -51.5t-51.5 -21.5h-762q-32 0 -53.5 -21.5t-21.5 -51.5v-309q0 -30 -20.5 -51.5t-52.5 -21.5h-82q-30 0 -51.5 21.5t-21.5 51.5zM319 303q0 -32 21.5 -52.5t53.5 -20.5h532 q32 0 52.5 20.5t20.5 52.5v532q0 32 -20.5 53.5t-52.5 21.5h-532q-32 0 -53.5 -21.5t-21.5 -53.5v-532z" />
<glyph unicode="q" horiz-adv-x="1322" d="M91 71v994q0 30 21.5 51.5t51.5 21.5h994q30 0 51.5 -21.5t21.5 -51.5v-994q0 -30 -21.5 -51.5t-51.5 -21.5h-309q-30 0 -51.5 -22t-21.5 -51v-77q0 -30 21.5 -51.5t51.5 -21.5h79q30 0 51.5 -22t21.5 -53v-82q0 -30 -21.5 -51.5t-51.5 -21.5h-309q-30 0 -51.5 21.5 t-21.5 51.5v307q0 30 -21.5 51.5t-51.5 21.5h-309q-30 0 -51.5 21.5t-21.5 51.5zM321 300q0 -30 21.5 -51t51.5 -21h534q30 0 51.5 21t21.5 51v535q0 30 -21.5 51.5t-51.5 21.5h-534q-30 0 -51.5 -21.5t-21.5 -51.5v-535z" />
<glyph unicode="r" d="M91 73v992q0 30 21.5 51.5t51.5 21.5h992q30 0 51.5 -21.5t21.5 -51.5v-82q0 -30 -21.5 -51.5t-51.5 -21.5h-765q-30 0 -51 -21.5t-21 -51.5v-764q0 -30 -22 -51.5t-51 -21.5h-82q-30 0 -51.5 21.5t-21.5 51.5z" />
<glyph unicode="s" d="M91 73v79q0 30 21.5 51.5t51.5 21.5h764q30 0 51.5 22t21.5 51v82q0 32 -21.5 52.5t-51.5 20.5h-764q-30 0 -51.5 21.5t-21.5 53.5v537q0 30 21.5 51.5t51.5 21.5h992q30 0 51.5 -21.5t21.5 -51.5v-80q0 -30 -21.5 -51.5t-51.5 -21.5h-765q-30 0 -51 -21.5t-21 -50.5v-82 q0 -32 21.5 -52.5t50.5 -20.5h765q30 0 51.5 -21.5t21.5 -53.5v-537q0 -30 -21.5 -51.5t-51.5 -21.5h-992q-30 0 -51.5 21.5t-21.5 51.5z" />
<glyph unicode="t" d="M91 983v82q0 30 21.5 51.5t51.5 21.5h992q30 0 51.5 -21.5t21.5 -51.5v-82q0 -30 -21.5 -51.5t-51.5 -21.5h-309q-30 0 -51.5 -21.5t-21.5 -51.5v-764q0 -30 -22 -51.5t-51 -21.5h-82q-30 0 -51.5 21.5t-21.5 51.5v764q0 30 -21.5 51.5t-51.5 21.5h-309q-30 0 -51.5 21.5 t-21.5 51.5z" />
<glyph unicode="u" d="M91 73v992q0 30 21.5 51.5t51.5 21.5h82q30 0 51.5 -21.5t21.5 -51.5v-765q0 -30 21.5 -51t50.5 -21h537q30 0 51.5 21.5t21.5 50.5v765q0 30 21.5 51.5t51.5 21.5h82q30 0 51.5 -21.5t21.5 -51.5v-992q0 -30 -21.5 -51.5t-51.5 -21.5h-992q-30 0 -51.5 21.5t-21.5 51.5z " />
<glyph unicode="v" horiz-adv-x="1267" d="M91 994q0 43 36 64l71 39q18 11 36 11q43 0 64 -38l300 -556q14 -25 35 -25q20 0 36 25l300 556q20 38 62 38h2q18 0 34 -11l71 -39q38 -20 38 -62q0 -22 -9 -38l-498 -899q-14 -25 -36 -25q-20 0 -35 25l-498 899q-9 16 -9 36z" />
<glyph unicode="w" d="M91 73v992q0 30 21.5 51.5t51.5 21.5h82q32 0 52.5 -21.5t20.5 -51.5v-762q0 -32 21.5 -53.5t53.5 -21.5h79q30 0 51.5 21.5t21.5 53.5v762q0 30 21.5 51.5t51.5 21.5h82q30 0 51.5 -21.5t21.5 -51.5v-762q0 -32 21.5 -53.5t51.5 -21.5h79q32 0 52.5 21.5t20.5 53.5v762 q0 30 21.5 51.5t53.5 21.5h82q30 0 51.5 -21.5t21.5 -51.5v-992q0 -30 -21.5 -51.5t-51.5 -21.5h-992q-30 0 -51.5 21.5t-21.5 51.5z" />
<glyph unicode="x" horiz-adv-x="1258" d="M91 162q0 30 21 50l304 305q20 20 21 52q0 30 -21 52l-304 303q-20 23 -21 52q0 30 21 53l59 56q20 23 52 23q30 0 50 -23l305 -302q20 -23 52 -23q30 0 50 23l305 302q20 23 53 23q30 0 52 -23l57 -56q20 -20 20 -51q0 -32 -20 -52l-305 -305q-20 -23 -21 -52 q0 -30 21 -52l305 -305q20 -20 20 -50q0 -32 -20 -53l-59 -57q-19 -22 -48 -22h-2q-32 0 -53 22l-305 303q-20 20 -50 20q-32 0 -52 -20l-307 -303q-19 -22 -48 -22h-2q-32 0 -53 22l-56 57q-20 20 -21 53z" />
<glyph unicode="y" d="M91 73v992q0 30 21.5 51.5t51.5 21.5h82q30 0 51.5 -21.5t21.5 -51.5v-765q0 -30 21.5 -51t50.5 -21h537q30 0 51.5 21.5t21.5 50.5v765q0 30 21.5 51.5t51.5 21.5h82q30 0 51.5 -21.5t21.5 -51.5v-992q0 -30 -21.5 -51.5t-51.5 -21.5h-309q-30 0 -51.5 -21.5 t-21.5 -51.5v-309q0 -30 -22 -51.5t-51 -21.5h-82q-30 0 -51.5 21.5t-21.5 51.5v309q0 30 -21.5 51.5t-51.5 21.5h-309q-30 0 -51.5 21.5t-21.5 51.5z" />
<glyph unicode="z" horiz-adv-x="1324" d="M91 73v13q0 75 52 126l647 648q18 16 18 30q0 23 -39 22h-605q-30 0 -51.5 20.5t-21.5 52.5v80q0 30 21.5 51.5t51.5 21.5h997q30 0 51 -21.5t21 -51.5v-11q0 -75 -52 -126l-651 -650q-16 -16 -16 -30q0 -23 39 -23h608q30 0 51 -20.5t21 -52.5v-79q0 -30 -21.5 -51.5 t-50.5 -21.5h-997q-30 0 -51.5 21.5t-21.5 51.5z" />
<glyph unicode="{" horiz-adv-x="864" d="M91 300v537q0 30 21.5 51.5t51.5 21.5h82q30 0 51.5 21.5t21.5 51.5v537q0 30 21.5 51.5t50.5 21.5h310q30 0 51.5 -21.5t21.5 -51.5v-82q0 -30 -22 -51.5t-51 -21.5h-82q-30 0 -51.5 -21.5t-21.5 -50.5v-538q0 -30 -21.5 -51t-51.5 -21h-82q-30 0 -51 -22t-21 -51v-82 q0 -30 21.5 -51.5t50.5 -21.5h82q30 0 51.5 -21.5t21.5 -51.5v-537q0 -30 21.5 -51.5t51.5 -21.5h82q30 0 51.5 -21.5t21.5 -50.5v-82q0 -30 -22 -51.5t-51 -21.5h-310q-30 0 -51 21.5t-21 51.5v537q0 30 -22 51.5t-51 21.5h-82q-30 0 -51.5 21.5t-21.5 50.5z" />
<glyph unicode="|" horiz-adv-x="409" d="M91 -382v1902q0 30 21.5 51.5t51.5 21.5h82q32 0 52.5 -21.5t20.5 -51.5v-1902q0 -30 -20.5 -51.5t-52.5 -21.5h-82q-30 0 -51.5 21.5t-21.5 51.5z" />
<glyph unicode="}" horiz-adv-x="864" d="M91 -300q0 30 21.5 51t51.5 21h82q30 0 51.5 22t21.5 51v537q0 30 21.5 51.5t50.5 21.5h82q30 0 51.5 21.5t21.5 51.5v82q0 30 -21.5 51.5t-51.5 21.5h-82q-30 0 -51 21.5t-21 50.5v538q0 30 -22 51t-51 21h-82q-30 0 -51.5 22t-21.5 51v82q0 30 21.5 51.5t51.5 21.5h309 q30 0 51.5 -21.5t21.5 -51.5v-537q0 -30 21.5 -51.5t51.5 -21.5h82q30 0 51.5 -21.5t21.5 -51.5v-537q0 -30 -22 -51t-51 -21h-82q-30 0 -51.5 -22t-21.5 -51v-537q0 -30 -21.5 -51.5t-51.5 -21.5h-309q-30 0 -51.5 21.5t-21.5 51.5v82z" />
<glyph unicode="~" horiz-adv-x="1167" d="M91 448q0 30 21 53l300 298q20 23 52 22q30 0 50 -22l139 -139q20 -23 52 -23q30 0 50 23l139 139q20 23 53 22q30 0 50 -22l59 -57q20 -23 20 -53q0 -29 -20 -52l-301 -298q-20 -23 -50 -23q-32 0 -52 23l-139 137q-20 23 -50 22q-32 0 -52 -22l-139 -137 q-20 -23 -50 -23q-32 0 -52 23l-59 57q-20 23 -21 52z" />
<glyph unicode="&#xa1;" horiz-adv-x="409" d="M91 73v537q0 30 21.5 51.5t51.5 21.5h82q32 0 52.5 -22t20.5 -51v-537q0 -30 -20.5 -51.5t-52.5 -21.5h-82q-30 0 -51.5 21.5t-21.5 51.5zM91 983v82q0 30 21.5 51.5t51.5 21.5h82q32 0 52.5 -21.5t20.5 -51.5v-82q0 -30 -20.5 -51.5t-52.5 -21.5h-82q-30 0 -51.5 21.5 t-21.5 51.5z" />
<glyph unicode="&#xa2;" horiz-adv-x="1092" d="M91 300v537q0 30 21.5 51.5t51.5 21.5h309q30 0 51.5 21.5t21.5 51.5v82q0 30 21.5 51.5t51.5 21.5h82q30 0 51.5 -21.5t21.5 -51.5v-82q0 -30 21.5 -51.5t51.5 -21.5h81q30 0 51.5 -21.5t21.5 -51.5v-82q0 -30 -21.5 -51t-51.5 -21h-537q-30 0 -51 -22t-21 -51v-82 q0 -30 21.5 -51.5t50.5 -21.5h537q30 0 51.5 -21.5t21.5 -51.5v-82q0 -30 -21.5 -51t-51.5 -21h-81q-30 0 -51.5 -22t-21.5 -51v-82q0 -30 -22 -51.5t-51 -21.5h-82q-30 0 -51.5 21.5t-21.5 51.5v82q0 30 -21.5 51.5t-51.5 21.5h-309q-30 0 -51.5 21.5t-21.5 50.5z" />
<glyph unicode="&#xa3;" d="M91 75v77q0 30 23 53t52 23h77q32 0 55 21.5t23 53.5v75q0 32 -23 54.5t-55 22.5h-77q-30 0 -52.5 21.5t-22.5 53.5v75q0 32 23 53.5t52 21.5h77q32 0 55 23t23 55v305q0 30 21.5 52.5t53.5 22.5h530q32 0 53.5 -23t21.5 -52v-78q0 -32 -21.5 -54.5t-53.5 -22.5h-302 q-32 0 -54 -21.5t-22 -53.5v-75q0 -32 22 -55t54 -23h75q32 0 53.5 -21.5t21.5 -53.5v-75q0 -32 -22 -53.5t-53 -21.5h-75q-32 0 -54 -22.5t-22 -54.5v-75q0 -32 22 -53.5t54 -21.5h530q30 0 52.5 -23t22.5 -53v-77q0 -30 -23 -52.5t-52 -22.5h-988q-30 0 -52.5 23t-22.5 52 z" />
<glyph unicode="&#xa4;" horiz-adv-x="1413" d="M41 373v80q0 32 21.5 53.5t51.5 21.5h45v82h-45q-30 0 -51.5 21.5t-21.5 51.5v82q0 30 21.5 51t51.5 21h45v228q0 30 22 51.5t51 21.5h997q30 0 51.5 -21.5t21.5 -51.5v-80q0 -32 -22 -52.5t-51 -20.5h-767q-32 0 -53.5 -21.5t-21.5 -53.5h423q30 0 51.5 -21.5 t21.5 -50.5v-82q0 -30 -21.5 -51.5t-51.5 -21.5h-423v-82h423q30 0 51.5 -21.5t21.5 -53.5v-80q0 -30 -21.5 -51.5t-51.5 -21.5h-423q0 -32 21.5 -53.5t53.5 -21.5h767q30 0 51.5 -20.5t21.5 -52.5v-79q0 -30 -22 -51.5t-51 -21.5h-997q-30 0 -51.5 21.5t-21.5 51.5v227h-45 q-30 0 -51.5 22t-21.5 51z" />
<glyph unicode="&#xa5;" d="M91 755v310q0 30 21.5 51.5t51.5 21.5h82q30 0 51.5 -21.5t21.5 -51.5v-82q0 -30 21.5 -51.5t50.5 -21.5h537q30 0 51.5 21.5t21.5 51.5v82q0 30 21.5 51.5t51.5 21.5h82q30 0 51.5 -21.5t21.5 -51.5v-310q0 -30 -21.5 -51t-51.5 -21h-309q-30 0 -51.5 -22t-21.5 -51v-82 q0 -30 21.5 -51.5t51.5 -21.5h81q30 0 51.5 -21.5t21.5 -51.5v-82q0 -30 -21.5 -51t-51.5 -21h-81q-30 0 -51.5 -22t-21.5 -51v-82q0 -30 -22 -51.5t-51 -21.5h-82q-30 0 -51.5 21.5t-21.5 51.5v82q0 30 -21.5 51.5t-51.5 21.5h-82q-30 0 -51 21.5t-21 50.5v82 q0 30 21.5 51.5t50.5 21.5h82q30 0 51.5 21.5t21.5 51.5v82q0 30 -21.5 51.5t-51.5 21.5h-309q-30 0 -51.5 21.5t-21.5 50.5z" />
<glyph unicode="&#xa8;" horiz-adv-x="864" d="M91 1438v82q0 32 21.5 52.5t51.5 20.5h82q32 0 52.5 -20.5t20.5 -52.5v-82q0 -30 -20.5 -51.5t-52.5 -21.5h-82q-30 0 -51.5 22t-21.5 51zM546 1438v82q0 32 21.5 52.5t51.5 20.5h82q30 0 51.5 -20.5t21.5 -52.5v-82q0 -30 -22 -51.5t-51 -21.5h-82q-30 0 -51.5 22 t-21.5 51z" />
<glyph unicode="&#xa9;" horiz-adv-x="864" d="M91 528v537q0 30 21.5 51.5t51.5 21.5h537q30 0 51.5 -21.5t21.5 -51.5v-537q0 -30 -22 -51.5t-51 -21.5h-537q-30 0 -51.5 21.5t-21.5 51.5zM166 605q0 -32 21.5 -53.5t53.5 -21.5h383q32 0 53.5 21.5t21.5 53.5v383q0 32 -22 53.5t-53 21.5h-383q-32 0 -53.5 -22 t-21.5 -53v-383zM243 680v232q0 30 22 51.5t51 21.5h232q73 0 73 -36q0 -39 -73 -39h-157q-30 0 -51 -21.5t-21 -51.5v-82q0 -30 21.5 -51t50.5 -21h157q73 0 73 -39q0 -36 -73 -36h-232q-30 0 -51.5 21.5t-21.5 50.5z" />
<glyph unicode="&#xab;" horiz-adv-x="1024" d="M91 569q0 30 21 52l218 216q20 23 52 23q30 0 53 -23l57 -54q20 -23 20 -53t-20 -52l-60 -57q-20 -23 -20 -52q0 -30 20 -52l60 -57q20 -23 20 -53t-20 -52l-57 -55q-23 -23 -53 -22q-32 0 -52 22l-218 217q-20 23 -21 52zM512 569q0 30 20 52l219 216q20 23 50 23 q32 0 52 -23l57 -54q23 -23 23 -53t-21 -52l-59 -57q-20 -23 -20 -52q0 -30 20 -52l59 -57q20 -23 21 -53q0 -30 -23 -52l-57 -55q-20 -23 -52 -22q-30 0 -50 22l-219 217q-20 23 -20 52z" />
<glyph unicode="&#xac;" horiz-adv-x="864" d="M91 642v82q0 30 21.5 51t51.5 21h537q30 0 51.5 -21.5t21.5 -50.5v-310q0 -30 -22 -51.5t-51 -21.5h-82q-30 0 -51.5 22t-21.5 51v82q0 30 -21.5 51.5t-51.5 21.5h-309q-30 0 -51.5 21.5t-21.5 51.5z" />
<glyph unicode="&#xad;" horiz-adv-x="864" d="M91 528v82q0 30 21.5 51.5t51.5 21.5h537q30 0 51.5 -22t21.5 -51v-82q0 -30 -22 -51.5t-51 -21.5h-537q-30 0 -51.5 21.5t-21.5 51.5z" />
<glyph unicode="&#xae;" horiz-adv-x="864" d="M91 528v537q0 30 21.5 51.5t51.5 21.5h537q30 0 51.5 -21.5t21.5 -51.5v-537q0 -30 -22 -51.5t-51 -21.5h-537q-30 0 -51.5 21.5t-21.5 51.5zM166 605q0 -32 21.5 -53.5t53.5 -21.5h383q32 0 53.5 21.5t21.5 53.5v383q0 32 -22 53.5t-53 21.5h-383q-32 0 -53.5 -22 t-21.5 -53v-383zM243 680v232q0 30 22 51.5t51 21.5h232q73 0 73 -36q0 -39 -73 -39h-157q-30 0 -51 -21.5t-21 -51.5v-157q0 -73 -39 -72q-36 0 -37 72z" />
<glyph unicode="&#xb0;" horiz-adv-x="864" d="M91 528v537q0 30 21.5 51.5t51.5 21.5h537q30 0 51.5 -21.5t21.5 -51.5v-537q0 -30 -22 -51.5t-51 -21.5h-537q-30 0 -51.5 21.5t-21.5 51.5zM319 755q0 -30 21.5 -51t50.5 -21h82q30 0 51.5 21t21.5 51v82q0 30 -21.5 51.5t-51.5 21.5h-82q-30 0 -51 -21.5t-21 -51.5 v-82z" />
<glyph unicode="&#xb1;" horiz-adv-x="864" d="M91 130v82q0 30 21.5 51t51.5 21h537q30 0 51.5 -21.5t21.5 -50.5v-82q0 -30 -22 -51.5t-51 -21.5h-537q-30 0 -51.5 21.5t-21.5 51.5zM91 699v82q0 30 21.5 51t51.5 21h82q30 0 51.5 22t21.5 51v82q0 30 21.5 51.5t50.5 21.5h82q30 0 51.5 -21.5t21.5 -51.5v-82 q0 -30 21.5 -51.5t51.5 -21.5h82q30 0 51.5 -21.5t21.5 -50.5v-82q0 -30 -22 -51.5t-51 -21.5h-82q-30 0 -51.5 -21.5t-21.5 -51.5v-82q0 -30 -21.5 -51.5t-51.5 -21.5h-82q-30 0 -51 21.5t-21 51.5v82q0 30 -22 51.5t-51 21.5h-82q-30 0 -51.5 21.5t-21.5 51.5z" />
<glyph unicode="&#xb4;" horiz-adv-x="568" d="M91 1622q0 30 21 53l56 57q23 20 53 20t50 -20l186 -187q20 -20 21 -52q-1 -30 -21 -50l-57 -57q-20 -20 -50 -21q-32 0 -52 21l-186 186q-20 20 -21 50z" />
<glyph unicode="&#xb7;" horiz-adv-x="409" d="M91 528v82q0 30 21.5 51.5t51.5 21.5h82q32 0 52.5 -22t20.5 -51v-82q0 -30 -20.5 -51.5t-52.5 -21.5h-82q-30 0 -51.5 21.5t-21.5 51.5z" />
<glyph unicode="&#xbb;" horiz-adv-x="1024" d="M91 407q0 30 21 53l59 57q20 23 20 52q0 30 -20 52l-59 57q-20 23 -21 52q0 30 21 53l59 54q20 23 50 23q32 0 52 -23l219 -216q20 -23 20 -52t-20 -52l-219 -217q-20 -23 -52 -22q-30 0 -50 22l-59 55q-20 23 -21 52zM512 407q0 30 20 53l60 57q20 23 20 52q0 30 -20 52 l-60 57q-20 23 -20 52q0 30 20 53l57 54q23 23 53 23q32 0 52 -23l218 -216q20 -23 21 -52q-1 -29 -21 -52l-218 -217q-20 -23 -52 -22q-30 0 -53 22l-57 55q-20 23 -20 52z" />
<glyph unicode="&#xbf;" d="M91 73v537q0 32 21.5 53.5t51.5 21.5h537q30 0 51.5 -21.5t21.5 -53.5v-82q0 -32 -22 -53.5t-51 -21.5h-310q-30 0 -51 -20.5t-21 -52.5v-82q0 -30 21.5 -51.5t50.5 -21.5h537q30 0 51.5 22t21.5 51v82q0 32 21.5 52.5t51.5 20.5h82q30 0 51.5 -20.5t21.5 -52.5v-307 q0 -30 -21.5 -51.5t-51.5 -21.5h-992q-30 0 -51.5 21.5t-21.5 51.5zM546 985v80q0 30 21.5 51.5t51.5 21.5h82q30 0 51.5 -21.5t21.5 -51.5v-80q0 -30 -22 -51.5t-51 -21.5h-82q-30 0 -51.5 22t-21.5 51z" />
<glyph unicode="&#xc0;" d="M91 73v537q0 32 21.5 53.5t51.5 21.5h764q30 0 51.5 20.5t21.5 52.5v82q0 30 -21.5 51t-51.5 21h-764q-30 0 -51.5 22t-21.5 51v80q0 30 21.5 51.5t51.5 21.5h992q30 0 51.5 -21.5t21.5 -51.5v-992q0 -30 -21.5 -51.5t-51.5 -21.5h-992q-30 0 -51.5 21.5t-21.5 51.5z M319 298q0 -30 21.5 -51.5t50.5 -21.5h537q30 0 51.5 21.5t21.5 51.5v82q0 32 -21.5 52.5t-51.5 20.5h-537q-30 0 -51 -20.5t-21 -52.5v-82zM466 1622q0 30 21 53l57 57q20 20 50 20q32 0 52 -20l187 -187q20 -20 20 -52q0 -30 -20 -50l-57 -57q-23 -20 -52 -21 q-30 0 -50 21l-187 186q-20 20 -21 50z" />
<glyph unicode="&#xc1;" d="M91 73v537q0 32 21.5 53.5t51.5 21.5h764q30 0 51.5 20.5t21.5 52.5v82q0 30 -21.5 51t-51.5 21h-764q-30 0 -51.5 22t-21.5 51v80q0 30 21.5 51.5t51.5 21.5h992q30 0 51.5 -21.5t21.5 -51.5v-992q0 -30 -21.5 -51.5t-51.5 -21.5h-992q-30 0 -51.5 21.5t-21.5 51.5z M319 298q0 -30 21.5 -51.5t50.5 -21.5h537q30 0 51.5 21.5t21.5 51.5v82q0 32 -21.5 52.5t-51.5 20.5h-537q-30 0 -51 -20.5t-21 -52.5v-82zM466 1493q0 32 21 52l187 187q20 20 50 20t52 -20l57 -57q20 -23 20 -53t-20 -50l-187 -186q-20 -20 -52 -21q-30 0 -50 21l-57 57 q-20 20 -21 50z" />
<glyph unicode="&#xc2;" d="M91 73v537q0 32 21.5 53.5t51.5 21.5h764q30 0 51.5 20.5t21.5 52.5v82q0 30 -21.5 51t-51.5 21h-764q-30 0 -51.5 22t-21.5 51v80q0 30 21.5 51.5t51.5 21.5h992q30 0 51.5 -21.5t21.5 -51.5v-992q0 -30 -21.5 -51.5t-51.5 -21.5h-992q-30 0 -51.5 21.5t-21.5 51.5z M319 298q0 -30 21.5 -51.5t50.5 -21.5h537q30 0 51.5 21.5t21.5 51.5v82q0 32 -21.5 52.5t-51.5 20.5h-537q-30 0 -51 -20.5t-21 -52.5v-82zM373 1495q0 30 23 52l214 212q20 23 50 23t50 -23l214 -212q20 -23 20 -52q0 -30 -20 -50l-55 -57q-23 -20 -52 -20q-30 0 -50 20 l-57 57q-20 20 -50 20t-50 -20l-59 -57q-20 -20 -50 -20t-50 20l-55 57q-23 20 -23 50z" />
<glyph unicode="&#xc3;" d="M91 73v537q0 32 21.5 53.5t51.5 21.5h764q30 0 51.5 20.5t21.5 52.5v82q0 30 -21.5 51t-51.5 21h-764q-30 0 -51.5 22t-21.5 51v80q0 30 21.5 51.5t51.5 21.5h992q30 0 51.5 -21.5t21.5 -51.5v-992q0 -30 -21.5 -51.5t-51.5 -21.5h-992q-30 0 -51.5 21.5t-21.5 51.5z M307 1493q0 30 21 52l189 187q20 20 50 20t52 -20l55 -55q20 -23 50 -23t52 21l55 57q23 20 52 20q30 0 50 -20l57 -57q20 -20 20 -50t-20 -50l-189 -189q-20 -20 -50 -21q-30 0 -50 21l-59 57q-20 20 -50 20t-50 -20l-55 -57q-23 -20 -52 -21q-30 0 -50 21l-57 57 q-20 20 -21 50zM319 298q0 -30 21.5 -51.5t50.5 -21.5h537q30 0 51.5 21.5t21.5 51.5v82q0 32 -21.5 52.5t-51.5 20.5h-537q-30 0 -51 -20.5t-21 -52.5v-82z" />
<glyph unicode="&#xc4;" d="M91 73v537q0 32 21.5 53.5t51.5 21.5h764q30 0 51.5 20.5t21.5 52.5v82q0 30 -21.5 51t-51.5 21h-764q-30 0 -51.5 22t-21.5 51v80q0 30 21.5 51.5t51.5 21.5h992q30 0 51.5 -21.5t21.5 -51.5v-992q0 -30 -21.5 -51.5t-51.5 -21.5h-992q-30 0 -51.5 21.5t-21.5 51.5z M319 298q0 -30 21.5 -51.5t50.5 -21.5h537q30 0 51.5 21.5t21.5 51.5v82q0 32 -21.5 52.5t-51.5 20.5h-537q-30 0 -51 -20.5t-21 -52.5v-82zM319 1438v82q0 32 21.5 52.5t53.5 20.5h82q30 0 51 -20.5t21 -52.5v-82q0 -30 -21.5 -51.5t-50.5 -21.5h-82q-32 0 -53.5 22 t-21.5 51zM774 1438v82q0 32 21.5 52.5t51.5 20.5h81q32 0 54 -20.5t22 -52.5v-82q0 -30 -22 -51.5t-54 -21.5h-81q-30 0 -51.5 22t-21.5 51z" />
<glyph unicode="&#xc5;" d="M91 73v537q0 32 21.5 53.5t51.5 21.5h764q30 0 51.5 20.5t21.5 52.5v82q0 30 -21.5 51t-51.5 21h-764q-30 0 -51.5 22t-21.5 51v80q0 30 21.5 51.5t51.5 21.5h992q30 0 51.5 -21.5t21.5 -51.5v-992q0 -30 -21.5 -51.5t-51.5 -21.5h-992q-30 0 -51.5 21.5t-21.5 51.5z M319 298q0 -30 21.5 -51.5t50.5 -21.5h537q30 0 51.5 21.5t21.5 51.5v82q0 32 -21.5 52.5t-51.5 20.5h-537q-30 0 -51 -20.5t-21 -52.5v-82zM319 1438v537q0 30 21.5 51.5t50.5 21.5h537q30 0 51.5 -21.5t21.5 -51.5v-537q0 -30 -21.5 -51.5t-51.5 -21.5h-537q-30 0 -51 22 t-21 51zM546 1666q0 -30 21.5 -51.5t51.5 -21.5h82q30 0 51.5 21.5t21.5 51.5v82q0 30 -22 51t-51 21h-82q-30 0 -51.5 -21.5t-21.5 -50.5v-82z" />
<glyph unicode="&#xc6;" d="M91 73v992q0 30 21.5 51.5t51.5 21.5h992q32 0 52.5 -21.5t20.5 -51.5v-80q0 -30 -20.5 -51.5t-52.5 -21.5h-309q-30 0 -51.5 -21.5t-21.5 -50.5v-82q0 -32 21.5 -52.5t51.5 -20.5h309q32 0 52.5 -21.5t20.5 -53.5v-82q0 -32 -20.5 -53.5t-52.5 -21.5h-309 q-30 0 -51.5 -20.5t-21.5 -52.5v-82q0 -30 21.5 -51.5t51.5 -21.5h309q32 0 52.5 -21.5t20.5 -51.5v-79q0 -30 -20.5 -51.5t-52.5 -21.5h-537q-30 0 -51.5 21.5t-21.5 51.5v307q0 32 -20.5 52.5t-52.5 20.5h-82q-30 0 -51 -20.5t-21 -52.5v-307q0 -30 -22 -51.5t-51 -21.5 h-82q-30 0 -51.5 21.5t-21.5 51.5zM319 758q0 -32 21.5 -52.5t50.5 -20.5h82q32 0 52.5 20.5t20.5 52.5v82q0 30 -20.5 51t-52.5 21h-82q-30 0 -51 -21.5t-21 -50.5v-82z" />
<glyph unicode="&#xc7;" d="M91 73v992q0 30 21.5 51.5t51.5 21.5h992q30 0 51.5 -21.5t21.5 -51.5v-84q0 -30 -21.5 -51.5t-51.5 -21.5h-765q-30 0 -51 -21.5t-21 -51.5v-537q0 -30 21.5 -51.5t50.5 -21.5h765q30 0 51.5 -20.5t21.5 -52.5v-79q0 -30 -21.5 -51.5t-51.5 -21.5h-82q-30 0 -51.5 -21.5 t-21.5 -51.5v-309q0 -30 -21.5 -51.5t-51.5 -21.5h-309q-30 0 -51.5 21.5t-21.5 51.5v82q0 30 21.5 51t51.5 21h82q30 0 51.5 22t21.5 51v82q0 30 -22 51.5t-51 21.5h-537q-30 0 -51.5 21.5t-21.5 51.5z" />
<glyph unicode="&#xc8;" d="M91 73v992q0 30 21.5 51.5t51.5 21.5h992q30 0 51.5 -21.5t21.5 -51.5v-80q0 -30 -21.5 -51.5t-51.5 -21.5h-765q-30 0 -51 -21.5t-21 -50.5v-82q0 -32 21.5 -52.5t50.5 -20.5h765q30 0 51.5 -21.5t21.5 -53.5v-82q0 -32 -21.5 -53.5t-51.5 -21.5h-765q-30 0 -51 -20.5 t-21 -52.5v-82q0 -30 21.5 -51.5t50.5 -21.5h765q30 0 51.5 -21.5t21.5 -51.5v-79q0 -30 -21.5 -51.5t-51.5 -21.5h-992q-30 0 -51.5 21.5t-21.5 51.5zM466 1622q0 30 21 53l57 57q20 20 50 20q32 0 52 -20l187 -187q20 -20 20 -52q0 -30 -20 -50l-57 -57q-23 -20 -52 -21 q-30 0 -50 21l-187 186q-20 20 -21 50z" />
<glyph unicode="&#xc9;" d="M91 73v992q0 30 21.5 51.5t51.5 21.5h992q30 0 51.5 -21.5t21.5 -51.5v-537q0 -30 -21.5 -51.5t-51.5 -21.5h-762q-32 0 -53.5 -21.5t-21.5 -51.5v-79q0 -32 21.5 -53.5t53.5 -21.5h762q30 0 51.5 -20.5t21.5 -52.5v-82q0 -30 -21.5 -51.5t-51.5 -21.5h-992 q-30 0 -51.5 21.5t-21.5 51.5zM319 755q0 -30 21.5 -51t53.5 -21h532q32 0 53.5 21t21.5 51v80q0 32 -21.5 53.5t-53.5 21.5h-532q-32 0 -53.5 -21.5t-21.5 -53.5v-80zM466 1493q0 32 21 52l187 187q20 20 50 20t52 -20l57 -57q20 -23 20 -53t-20 -50l-187 -186 q-20 -20 -52 -21q-30 0 -50 21l-57 57q-20 20 -21 50z" />
<glyph unicode="&#xca;" d="M91 73v992q0 30 21.5 51.5t51.5 21.5h992q30 0 51.5 -21.5t21.5 -51.5v-537q0 -30 -21.5 -51.5t-51.5 -21.5h-762q-32 0 -53.5 -21.5t-21.5 -51.5v-79q0 -32 21.5 -53.5t53.5 -21.5h762q30 0 51.5 -20.5t21.5 -52.5v-82q0 -30 -21.5 -51.5t-51.5 -21.5h-992 q-30 0 -51.5 21.5t-21.5 51.5zM319 755q0 -30 21.5 -51t53.5 -21h532q32 0 53.5 21t21.5 51v80q0 32 -21.5 53.5t-53.5 21.5h-532q-32 0 -53.5 -21.5t-21.5 -53.5v-80zM373 1495q0 30 23 52l214 212q20 23 50 23t50 -23l214 -212q20 -23 20 -52q0 -30 -20 -50l-55 -57 q-23 -20 -52 -20q-30 0 -50 20l-57 57q-20 20 -50 20t-50 -20l-59 -57q-20 -20 -50 -20t-50 20l-55 57q-23 20 -23 50z" />
<glyph unicode="&#xcb;" d="M91 73v992q0 30 21.5 51.5t51.5 21.5h992q30 0 51.5 -21.5t21.5 -51.5v-80q0 -30 -21.5 -51.5t-51.5 -21.5h-765q-30 0 -51 -21.5t-21 -50.5v-82q0 -32 21.5 -52.5t50.5 -20.5h765q30 0 51.5 -21.5t21.5 -53.5v-82q0 -32 -21.5 -53.5t-51.5 -21.5h-765q-30 0 -51 -20.5 t-21 -52.5v-82q0 -30 21.5 -51.5t50.5 -21.5h765q30 0 51.5 -21.5t21.5 -51.5v-79q0 -30 -21.5 -51.5t-51.5 -21.5h-992q-30 0 -51.5 21.5t-21.5 51.5zM319 1438v82q0 32 21.5 52.5t53.5 20.5h82q30 0 51 -20.5t21 -52.5v-82q0 -30 -21.5 -51.5t-50.5 -21.5h-82 q-32 0 -53.5 22t-21.5 51zM774 1438v82q0 32 21.5 52.5t51.5 20.5h81q32 0 54 -20.5t22 -52.5v-82q0 -30 -22 -51.5t-54 -21.5h-81q-30 0 -51.5 22t-21.5 51z" />
<glyph unicode="&#xcc;" horiz-adv-x="568" d="M91 1622q0 30 21 53l56 57q23 20 53 20t50 -20l186 -187q20 -20 21 -52q-1 -30 -21 -50l-57 -57q-20 -20 -50 -21q-32 0 -52 21l-186 186q-20 20 -21 50zM171 73v992q0 30 21.5 51.5t50.5 21.5h82q32 0 53.5 -21.5t21.5 -51.5v-992q0 -30 -21.5 -51.5t-53.5 -21.5h-82 q-30 0 -51 21.5t-21 51.5z" />
<glyph unicode="&#xcd;" horiz-adv-x="568" d="M91 1493q0 32 21 52l186 187q20 20 52 20q30 0 50 -20l57 -57q20 -23 21 -53q-1 -30 -21 -50l-186 -186q-20 -20 -50 -21q-30 0 -53 21l-56 57q-20 20 -21 50zM171 73v992q0 30 21.5 51.5t50.5 21.5h82q32 0 53.5 -21.5t21.5 -51.5v-992q0 -30 -21.5 -51.5t-53.5 -21.5 h-82q-30 0 -51 21.5t-21 51.5z" />
<glyph unicode="&#xce;" horiz-adv-x="753" d="M91 1495q0 30 21 52l213 212q20 23 50 23t53 -23l211 -212q23 -23 23 -52q0 -30 -20 -50l-57 -57q-20 -20 -50 -20t-50 20l-57 57q-23 20 -53 20t-50 -20l-56 -57q-20 -20 -51 -20q-30 0 -50 20l-56 57q-20 20 -21 50zM264 73v992q0 30 20.5 51.5t52.5 21.5h82 q30 0 51.5 -21.5t21.5 -51.5v-992q0 -30 -22 -51.5t-51 -21.5h-82q-32 0 -52.5 21.5t-20.5 51.5z" />
<glyph unicode="&#xcf;" horiz-adv-x="864" d="M91 1438v82q0 32 21.5 52.5t51.5 20.5h82q32 0 52.5 -20.5t20.5 -52.5v-82q0 -30 -20.5 -51.5t-52.5 -21.5h-82q-30 0 -51.5 22t-21.5 51zM319 73v992q0 30 20.5 51.5t51.5 21.5h82q30 0 51.5 -21.5t21.5 -51.5v-992q0 -30 -21.5 -51.5t-51.5 -21.5h-82q-32 0 -52 21.5 t-20 51.5zM546 1438v82q0 32 21.5 52.5t51.5 20.5h82q30 0 51.5 -20.5t21.5 -52.5v-82q0 -30 -22 -51.5t-51 -21.5h-82q-30 0 -51.5 22t-21.5 51z" />
<glyph unicode="&#xd1;" d="M91 73v992q0 30 21.5 51.5t51.5 21.5h992q30 0 51.5 -21.5t21.5 -51.5v-992q0 -30 -21.5 -51.5t-51.5 -21.5h-82q-30 0 -51.5 21.5t-21.5 51.5v764q0 30 -21.5 51.5t-51.5 21.5h-537q-30 0 -51 -21.5t-21 -51.5v-764q0 -30 -22 -51.5t-51 -21.5h-82q-30 0 -51.5 21.5 t-21.5 51.5zM307 1493q0 30 21 52l189 187q20 20 50 20t52 -20l55 -55q20 -23 50 -23t52 21l55 57q23 20 52 20q30 0 50 -20l57 -57q20 -20 20 -50t-20 -50l-189 -189q-20 -20 -50 -21q-30 0 -50 21l-59 57q-20 20 -50 20t-50 -20l-55 -57q-23 -20 -52 -21q-30 0 -50 21 l-57 57q-20 20 -21 50z" />
<glyph unicode="&#xd2;" d="M91 73v992q0 30 21.5 51.5t51.5 21.5h992q30 0 51.5 -21.5t21.5 -51.5v-992q0 -30 -21.5 -51.5t-51.5 -21.5h-992q-30 0 -51.5 21.5t-21.5 51.5zM319 303q0 -32 21.5 -53.5t53.5 -21.5h532q32 0 53.5 21.5t21.5 53.5v532q0 32 -21.5 53.5t-53.5 21.5h-532 q-32 0 -53.5 -21.5t-21.5 -53.5v-532zM466 1622q0 30 21 53l57 57q20 20 50 20q32 0 52 -20l187 -187q20 -20 20 -52q0 -30 -20 -50l-57 -57q-23 -20 -52 -21q-30 0 -50 21l-187 186q-20 20 -21 50z" />
<glyph unicode="&#xd3;" d="M91 73v992q0 30 21.5 51.5t51.5 21.5h992q30 0 51.5 -21.5t21.5 -51.5v-992q0 -30 -21.5 -51.5t-51.5 -21.5h-992q-30 0 -51.5 21.5t-21.5 51.5zM319 303q0 -32 21.5 -53.5t53.5 -21.5h532q32 0 53.5 21.5t21.5 53.5v532q0 32 -21.5 53.5t-53.5 21.5h-532 q-32 0 -53.5 -21.5t-21.5 -53.5v-532zM466 1493q0 32 21 52l187 187q20 20 50 20t52 -20l57 -57q20 -23 20 -53t-20 -50l-187 -186q-20 -20 -52 -21q-30 0 -50 21l-57 57q-20 20 -21 50z" />
<glyph unicode="&#xd4;" d="M91 73v992q0 30 21.5 51.5t51.5 21.5h992q30 0 51.5 -21.5t21.5 -51.5v-992q0 -30 -21.5 -51.5t-51.5 -21.5h-992q-30 0 -51.5 21.5t-21.5 51.5zM319 303q0 -32 21.5 -53.5t53.5 -21.5h532q32 0 53.5 21.5t21.5 53.5v532q0 32 -21.5 53.5t-53.5 21.5h-532 q-32 0 -53.5 -21.5t-21.5 -53.5v-532zM373 1495q0 30 23 52l214 212q20 23 50 23t50 -23l214 -212q20 -23 20 -52q0 -30 -20 -50l-55 -57q-23 -20 -52 -20q-30 0 -50 20l-57 57q-20 20 -50 20t-50 -20l-59 -57q-20 -20 -50 -20t-50 20l-55 57q-23 20 -23 50z" />
<glyph unicode="&#xd5;" d="M91 73v992q0 30 21.5 51.5t51.5 21.5h992q30 0 51.5 -21.5t21.5 -51.5v-992q0 -30 -21.5 -51.5t-51.5 -21.5h-992q-30 0 -51.5 21.5t-21.5 51.5zM307 1493q0 30 21 52l189 187q20 20 50 20t52 -20l55 -55q20 -23 50 -23t52 21l55 57q23 20 52 20q30 0 50 -20l57 -57 q20 -20 20 -50t-20 -50l-189 -189q-20 -20 -50 -21q-30 0 -50 21l-59 57q-20 20 -50 20t-50 -20l-55 -57q-23 -20 -52 -21q-30 0 -50 21l-57 57q-20 20 -21 50zM319 303q0 -32 21.5 -53.5t53.5 -21.5h532q32 0 53.5 21.5t21.5 53.5v532q0 32 -21.5 53.5t-53.5 21.5h-532 q-32 0 -53.5 -21.5t-21.5 -53.5v-532z" />
<glyph unicode="&#xd6;" d="M91 73v992q0 30 21.5 51.5t51.5 21.5h992q30 0 51.5 -21.5t21.5 -51.5v-992q0 -30 -21.5 -51.5t-51.5 -21.5h-992q-30 0 -51.5 21.5t-21.5 51.5zM319 303q0 -32 21.5 -53.5t53.5 -21.5h532q32 0 53.5 21.5t21.5 53.5v532q0 32 -21.5 53.5t-53.5 21.5h-532 q-32 0 -53.5 -21.5t-21.5 -53.5v-532zM319 1438v82q0 32 21.5 52.5t53.5 20.5h82q30 0 51 -20.5t21 -52.5v-82q0 -30 -21.5 -51.5t-50.5 -21.5h-82q-32 0 -53.5 22t-21.5 51zM774 1438v82q0 32 21.5 52.5t51.5 20.5h81q32 0 54 -20.5t22 -52.5v-82q0 -30 -22 -51.5 t-54 -21.5h-81q-30 0 -51.5 22t-21.5 51z" />
<glyph unicode="&#xd8;" d="M91 73v992q0 30 21.5 51.5t51.5 21.5h992q30 0 51.5 -21.5t21.5 -51.5v-992q0 -30 -21.5 -51.5t-51.5 -21.5h-992q-30 0 -51.5 21.5t-21.5 51.5zM319 303q0 -30 21.5 -51.5t50.5 -21.5h310q30 0 51.5 21.5t21.5 51.5v79q0 32 21.5 53.5t51.5 21.5h81q30 0 51.5 20.5 t21.5 52.5v307q0 30 -21.5 51.5t-51.5 21.5h-309q-30 0 -51.5 -21.5t-21.5 -51.5v-82q0 -30 -21.5 -51t-51.5 -21h-82q-30 0 -51 -22t-21 -51v-307z" />
<glyph unicode="&#xd9;" d="M91 73v992q0 30 21.5 51.5t51.5 21.5h82q30 0 51.5 -21.5t21.5 -51.5v-765q0 -30 21.5 -51t50.5 -21h537q30 0 51.5 21.5t21.5 50.5v765q0 30 21.5 51.5t51.5 21.5h82q30 0 51.5 -21.5t21.5 -51.5v-992q0 -30 -21.5 -51.5t-51.5 -21.5h-992q-30 0 -51.5 21.5t-21.5 51.5z M466 1622q0 30 21 53l57 57q20 20 50 20q32 0 52 -20l187 -187q20 -20 20 -52q0 -30 -20 -50l-57 -57q-23 -20 -52 -21q-30 0 -50 21l-187 186q-20 20 -21 50z" />
<glyph unicode="&#xda;" d="M91 73v992q0 30 21.5 51.5t51.5 21.5h82q30 0 51.5 -21.5t21.5 -51.5v-765q0 -30 21.5 -51t50.5 -21h537q30 0 51.5 21.5t21.5 50.5v765q0 30 21.5 51.5t51.5 21.5h82q30 0 51.5 -21.5t21.5 -51.5v-992q0 -30 -21.5 -51.5t-51.5 -21.5h-992q-30 0 -51.5 21.5t-21.5 51.5z M466 1493q0 32 21 52l187 187q20 20 50 20t52 -20l57 -57q20 -23 20 -53t-20 -50l-187 -186q-20 -20 -52 -21q-30 0 -50 21l-57 57q-20 20 -21 50z" />
<glyph unicode="&#xdb;" d="M91 73v992q0 30 21.5 51.5t51.5 21.5h82q30 0 51.5 -21.5t21.5 -51.5v-765q0 -30 21.5 -51t50.5 -21h537q30 0 51.5 21.5t21.5 50.5v765q0 30 21.5 51.5t51.5 21.5h82q30 0 51.5 -21.5t21.5 -51.5v-992q0 -30 -21.5 -51.5t-51.5 -21.5h-992q-30 0 -51.5 21.5t-21.5 51.5z M373 1495q0 30 23 52l214 212q20 23 50 23t50 -23l214 -212q20 -23 20 -52q0 -30 -20 -50l-55 -57q-23 -20 -52 -20q-30 0 -50 20l-57 57q-20 20 -50 20t-50 -20l-59 -57q-20 -20 -50 -20t-50 20l-55 57q-23 20 -23 50z" />
<glyph unicode="&#xdc;" d="M91 73v992q0 30 21.5 51.5t51.5 21.5h82q30 0 51.5 -21.5t21.5 -51.5v-765q0 -30 21.5 -51t50.5 -21h537q30 0 51.5 21.5t21.5 50.5v765q0 30 21.5 51.5t51.5 21.5h82q30 0 51.5 -21.5t21.5 -51.5v-992q0 -30 -21.5 -51.5t-51.5 -21.5h-992q-30 0 -51.5 21.5t-21.5 51.5z M319 1438v82q0 32 21.5 52.5t53.5 20.5h82q30 0 51 -20.5t21 -52.5v-82q0 -30 -21.5 -51.5t-50.5 -21.5h-82q-32 0 -53.5 22t-21.5 51zM774 1438v82q0 32 21.5 52.5t51.5 20.5h81q32 0 54 -20.5t22 -52.5v-82q0 -30 -22 -51.5t-54 -21.5h-81q-30 0 -51.5 22t-21.5 51z" />
<glyph unicode="&#xdf;" d="M91 73v992q0 30 21.5 51.5t51.5 21.5h992q32 0 52.5 -21.5t20.5 -51.5v-992q0 -30 -20.5 -51.5t-52.5 -21.5h-537q-30 0 -51.5 21.5t-21.5 51.5v79q0 30 21.5 51.5t51.5 21.5h309q32 0 52.5 22t20.5 51v82q0 32 -20.5 52.5t-52.5 20.5h-309q-30 0 -51.5 21.5t-21.5 53.5 v82q0 32 21.5 53.5t51.5 21.5h309q32 0 52.5 20.5t20.5 52.5v82q0 30 -20.5 51t-52.5 21h-537q-30 0 -51 -21.5t-21 -50.5v-767q0 -30 -22 -51.5t-51 -21.5h-82q-30 0 -51.5 21.5t-21.5 51.5z" />
<glyph unicode="&#xe0;" d="M91 73v537q0 32 21.5 53.5t51.5 21.5h764q30 0 51.5 20.5t21.5 52.5v82q0 30 -21.5 51t-51.5 21h-764q-30 0 -51.5 22t-21.5 51v80q0 30 21.5 51.5t51.5 21.5h992q30 0 51.5 -21.5t21.5 -51.5v-992q0 -30 -21.5 -51.5t-51.5 -21.5h-992q-30 0 -51.5 21.5t-21.5 51.5z M319 298q0 -30 21.5 -51.5t50.5 -21.5h537q30 0 51.5 21.5t21.5 51.5v82q0 32 -21.5 52.5t-51.5 20.5h-537q-30 0 -51 -20.5t-21 -52.5v-82zM466 1622q0 30 21 53l57 57q20 20 50 20q32 0 52 -20l187 -187q20 -20 20 -52q0 -30 -20 -50l-57 -57q-23 -20 -52 -21 q-30 0 -50 21l-187 186q-20 20 -21 50z" />
<glyph unicode="&#xe1;" d="M91 73v537q0 32 21.5 53.5t51.5 21.5h764q30 0 51.5 20.5t21.5 52.5v82q0 30 -21.5 51t-51.5 21h-764q-30 0 -51.5 22t-21.5 51v80q0 30 21.5 51.5t51.5 21.5h992q30 0 51.5 -21.5t21.5 -51.5v-992q0 -30 -21.5 -51.5t-51.5 -21.5h-992q-30 0 -51.5 21.5t-21.5 51.5z M319 298q0 -30 21.5 -51.5t50.5 -21.5h537q30 0 51.5 21.5t21.5 51.5v82q0 32 -21.5 52.5t-51.5 20.5h-537q-30 0 -51 -20.5t-21 -52.5v-82zM466 1493q0 32 21 52l187 187q20 20 50 20t52 -20l57 -57q20 -23 20 -53t-20 -50l-187 -186q-20 -20 -52 -21q-30 0 -50 21l-57 57 q-20 20 -21 50z" />
<glyph unicode="&#xe2;" d="M91 73v537q0 32 21.5 53.5t51.5 21.5h764q30 0 51.5 20.5t21.5 52.5v82q0 30 -21.5 51t-51.5 21h-764q-30 0 -51.5 22t-21.5 51v80q0 30 21.5 51.5t51.5 21.5h992q30 0 51.5 -21.5t21.5 -51.5v-992q0 -30 -21.5 -51.5t-51.5 -21.5h-992q-30 0 -51.5 21.5t-21.5 51.5z M319 298q0 -30 21.5 -51.5t50.5 -21.5h537q30 0 51.5 21.5t21.5 51.5v82q0 32 -21.5 52.5t-51.5 20.5h-537q-30 0 -51 -20.5t-21 -52.5v-82zM373 1495q0 30 23 52l214 212q20 23 50 23t50 -23l214 -212q20 -23 20 -52q0 -30 -20 -50l-55 -57q-23 -20 -52 -20q-30 0 -50 20 l-57 57q-20 20 -50 20t-50 -20l-59 -57q-20 -20 -50 -20t-50 20l-55 57q-23 20 -23 50z" />
<glyph unicode="&#xe3;" d="M91 73v537q0 32 21.5 53.5t51.5 21.5h764q30 0 51.5 20.5t21.5 52.5v82q0 30 -21.5 51t-51.5 21h-764q-30 0 -51.5 22t-21.5 51v80q0 30 21.5 51.5t51.5 21.5h992q30 0 51.5 -21.5t21.5 -51.5v-992q0 -30 -21.5 -51.5t-51.5 -21.5h-992q-30 0 -51.5 21.5t-21.5 51.5z M307 1493q0 30 21 52l189 187q20 20 50 20t52 -20l55 -55q20 -23 50 -23t52 21l55 57q23 20 52 20q30 0 50 -20l57 -57q20 -20 20 -50t-20 -50l-189 -189q-20 -20 -50 -21q-30 0 -50 21l-59 57q-20 20 -50 20t-50 -20l-55 -57q-23 -20 -52 -21q-30 0 -50 21l-57 57 q-20 20 -21 50zM319 298q0 -30 21.5 -51.5t50.5 -21.5h537q30 0 51.5 21.5t21.5 51.5v82q0 32 -21.5 52.5t-51.5 20.5h-537q-30 0 -51 -20.5t-21 -52.5v-82z" />
<glyph unicode="&#xe4;" d="M91 73v537q0 32 21.5 53.5t51.5 21.5h764q30 0 51.5 20.5t21.5 52.5v82q0 30 -21.5 51t-51.5 21h-764q-30 0 -51.5 22t-21.5 51v80q0 30 21.5 51.5t51.5 21.5h992q30 0 51.5 -21.5t21.5 -51.5v-992q0 -30 -21.5 -51.5t-51.5 -21.5h-992q-30 0 -51.5 21.5t-21.5 51.5z M319 298q0 -30 21.5 -51.5t50.5 -21.5h537q30 0 51.5 21.5t21.5 51.5v82q0 32 -21.5 52.5t-51.5 20.5h-537q-30 0 -51 -20.5t-21 -52.5v-82zM319 1438v82q0 32 21.5 52.5t53.5 20.5h82q30 0 51 -20.5t21 -52.5v-82q0 -30 -21.5 -51.5t-50.5 -21.5h-82q-32 0 -53.5 22 t-21.5 51zM774 1438v82q0 32 21.5 52.5t51.5 20.5h81q32 0 54 -20.5t22 -52.5v-82q0 -30 -22 -51.5t-54 -21.5h-81q-30 0 -51.5 22t-21.5 51z" />
<glyph unicode="&#xe5;" d="M91 73v537q0 32 21.5 53.5t51.5 21.5h764q30 0 51.5 20.5t21.5 52.5v82q0 30 -21.5 51t-51.5 21h-764q-30 0 -51.5 22t-21.5 51v80q0 30 21.5 51.5t51.5 21.5h992q30 0 51.5 -21.5t21.5 -51.5v-992q0 -30 -21.5 -51.5t-51.5 -21.5h-992q-30 0 -51.5 21.5t-21.5 51.5z M319 298q0 -30 21.5 -51.5t50.5 -21.5h537q30 0 51.5 21.5t21.5 51.5v82q0 32 -21.5 52.5t-51.5 20.5h-537q-30 0 -51 -20.5t-21 -52.5v-82zM319 1438v537q0 30 21.5 51.5t50.5 21.5h537q30 0 51.5 -21.5t21.5 -51.5v-537q0 -30 -21.5 -51.5t-51.5 -21.5h-537q-30 0 -51 22 t-21 51zM546 1666q0 -30 21.5 -51.5t51.5 -21.5h82q30 0 51.5 21.5t21.5 51.5v82q0 30 -22 51t-51 21h-82q-30 0 -51.5 -21.5t-21.5 -50.5v-82z" />
<glyph unicode="&#xe6;" horiz-adv-x="1324" d="M91 73v537q0 32 21.5 53.5t51.5 21.5h309q32 0 52.5 20.5t20.5 52.5v82q0 30 -20.5 51t-52.5 21h-309q-30 0 -51.5 22t-21.5 51v80q0 30 21.5 51.5t51.5 21.5h997q30 0 51 -21.5t21 -51.5v-537q0 -32 -21.5 -53.5t-50.5 -21.5h-310q-32 0 -53.5 -20.5t-21.5 -52.5v-82 q0 -30 21.5 -51.5t53.5 -21.5h310q30 0 51 -21.5t21 -51.5v-79q0 -30 -21.5 -51.5t-50.5 -21.5h-997q-30 0 -51.5 21.5t-21.5 51.5zM319 298q0 -30 21.5 -51.5t50.5 -21.5h82q32 0 52.5 21.5t20.5 51.5v82q0 32 -20.5 52.5t-52.5 20.5h-82q-30 0 -51 -20.5t-21 -52.5v-82z M776 758q0 -32 21.5 -52.5t53.5 -20.5h82q30 0 51.5 20.5t21.5 52.5v82q0 30 -21.5 51t-51.5 21h-82q-32 0 -53.5 -21.5t-21.5 -50.5v-82z" />
<glyph unicode="&#xe7;" d="M91 73v992q0 30 21.5 51.5t51.5 21.5h992q30 0 51.5 -21.5t21.5 -51.5v-84q0 -30 -21.5 -51.5t-51.5 -21.5h-765q-30 0 -51 -21.5t-21 -51.5v-537q0 -30 21.5 -51.5t50.5 -21.5h765q30 0 51.5 -20.5t21.5 -52.5v-79q0 -30 -21.5 -51.5t-51.5 -21.5h-82q-30 0 -51.5 -21.5 t-21.5 -51.5v-309q0 -30 -21.5 -51.5t-51.5 -21.5h-309q-30 0 -51.5 21.5t-21.5 51.5v82q0 30 21.5 51t51.5 21h82q30 0 51.5 22t21.5 51v82q0 30 -22 51.5t-51 21.5h-537q-30 0 -51.5 21.5t-21.5 51.5z" />
<glyph unicode="&#xe8;" d="M91 73v992q0 30 21.5 51.5t51.5 21.5h992q30 0 51.5 -21.5t21.5 -51.5v-537q0 -30 -21.5 -51.5t-51.5 -21.5h-762q-32 0 -53.5 -21.5t-21.5 -51.5v-79q0 -32 21.5 -53.5t53.5 -21.5h762q30 0 51.5 -20.5t21.5 -52.5v-82q0 -30 -21.5 -51.5t-51.5 -21.5h-992 q-30 0 -51.5 21.5t-21.5 51.5zM319 755q0 -30 21.5 -51t53.5 -21h532q32 0 53.5 21t21.5 51v80q0 32 -21.5 53.5t-53.5 21.5h-532q-32 0 -53.5 -21.5t-21.5 -53.5v-80zM466 1622q0 30 21 53l57 57q20 20 50 20q32 0 52 -20l187 -187q20 -20 20 -52q0 -30 -20 -50l-57 -57 q-23 -20 -52 -21q-30 0 -50 21l-187 186q-20 20 -21 50z" />
<glyph unicode="&#xe9;" d="M91 73v992q0 30 21.5 51.5t51.5 21.5h992q30 0 51.5 -21.5t21.5 -51.5v-537q0 -30 -21.5 -51.5t-51.5 -21.5h-762q-32 0 -53.5 -21.5t-21.5 -51.5v-79q0 -32 21.5 -53.5t53.5 -21.5h762q30 0 51.5 -20.5t21.5 -52.5v-82q0 -30 -21.5 -51.5t-51.5 -21.5h-992 q-30 0 -51.5 21.5t-21.5 51.5zM319 755q0 -30 21.5 -51t53.5 -21h532q32 0 53.5 21t21.5 51v80q0 32 -21.5 53.5t-53.5 21.5h-532q-32 0 -53.5 -21.5t-21.5 -53.5v-80zM466 1493q0 32 21 52l187 187q20 20 50 20t52 -20l57 -57q20 -23 20 -53t-20 -50l-187 -186 q-20 -20 -52 -21q-30 0 -50 21l-57 57q-20 20 -21 50z" />
<glyph unicode="&#xea;" d="M91 73v992q0 30 21.5 51.5t51.5 21.5h992q30 0 51.5 -21.5t21.5 -51.5v-537q0 -30 -21.5 -51.5t-51.5 -21.5h-762q-32 0 -53.5 -21.5t-21.5 -51.5v-79q0 -32 21.5 -53.5t53.5 -21.5h762q30 0 51.5 -20.5t21.5 -52.5v-82q0 -30 -21.5 -51.5t-51.5 -21.5h-992 q-30 0 -51.5 21.5t-21.5 51.5zM319 755q0 -30 21.5 -51t53.5 -21h532q32 0 53.5 21t21.5 51v80q0 32 -21.5 53.5t-53.5 21.5h-532q-32 0 -53.5 -21.5t-21.5 -53.5v-80zM373 1495q0 30 23 52l214 212q20 23 50 23t50 -23l214 -212q20 -23 20 -52q0 -30 -20 -50l-55 -57 q-23 -20 -52 -20q-30 0 -50 20l-57 57q-20 20 -50 20t-50 -20l-59 -57q-20 -20 -50 -20t-50 20l-55 57q-23 20 -23 50z" />
<glyph unicode="&#xeb;" d="M91 73v992q0 30 21.5 51.5t51.5 21.5h992q30 0 51.5 -21.5t21.5 -51.5v-537q0 -30 -21.5 -51.5t-51.5 -21.5h-762q-32 0 -53.5 -21.5t-21.5 -51.5v-79q0 -32 21.5 -53.5t53.5 -21.5h762q30 0 51.5 -20.5t21.5 -52.5v-82q0 -30 -21.5 -51.5t-51.5 -21.5h-992 q-30 0 -51.5 21.5t-21.5 51.5zM319 755q0 -30 21.5 -51t53.5 -21h532q32 0 53.5 21t21.5 51v80q0 32 -21.5 53.5t-53.5 21.5h-532q-32 0 -53.5 -21.5t-21.5 -53.5v-80zM319 1438v82q0 32 21.5 52.5t53.5 20.5h82q30 0 51 -20.5t21 -52.5v-82q0 -30 -21.5 -51.5t-50.5 -21.5 h-82q-32 0 -53.5 22t-21.5 51zM774 1438v82q0 32 21.5 52.5t51.5 20.5h81q32 0 54 -20.5t22 -52.5v-82q0 -30 -22 -51.5t-54 -21.5h-81q-30 0 -51.5 22t-21.5 51z" />
<glyph unicode="&#xec;" horiz-adv-x="568" d="M91 1622q0 30 21 53l56 57q23 20 53 20t50 -20l186 -187q20 -20 21 -52q-1 -30 -21 -50l-57 -57q-20 -20 -50 -21q-32 0 -52 21l-186 186q-20 20 -21 50zM171 73v992q0 30 21.5 51.5t50.5 21.5h82q32 0 53.5 -21.5t21.5 -51.5v-992q0 -30 -21.5 -51.5t-53.5 -21.5h-82 q-30 0 -51 21.5t-21 51.5z" />
<glyph unicode="&#xed;" horiz-adv-x="568" d="M91 1493q0 32 21 52l186 187q20 20 52 20q30 0 50 -20l57 -57q20 -23 21 -53q-1 -30 -21 -50l-186 -186q-20 -20 -50 -21q-30 0 -53 21l-56 57q-20 20 -21 50zM171 73v992q0 30 21.5 51.5t50.5 21.5h82q32 0 53.5 -21.5t21.5 -51.5v-992q0 -30 -21.5 -51.5t-53.5 -21.5 h-82q-30 0 -51 21.5t-21 51.5z" />
<glyph unicode="&#xee;" horiz-adv-x="753" d="M91 1495q0 30 21 52l213 212q20 23 50 23t53 -23l211 -212q23 -23 23 -52q0 -30 -20 -50l-57 -57q-20 -20 -50 -20t-50 20l-57 57q-23 20 -53 20t-50 -20l-56 -57q-20 -20 -51 -20q-30 0 -50 20l-56 57q-20 20 -21 50zM264 73v992q0 30 20.5 51.5t52.5 21.5h82 q30 0 51.5 -21.5t21.5 -51.5v-992q0 -30 -22 -51.5t-51 -21.5h-82q-32 0 -52.5 21.5t-20.5 51.5z" />
<glyph unicode="&#xef;" horiz-adv-x="864" d="M91 1438v82q0 32 21.5 52.5t51.5 20.5h82q32 0 52.5 -20.5t20.5 -52.5v-82q0 -30 -20.5 -51.5t-52.5 -21.5h-82q-30 0 -51.5 22t-21.5 51zM319 73v992q0 30 20.5 51.5t51.5 21.5h82q30 0 51.5 -21.5t21.5 -51.5v-992q0 -30 -21.5 -51.5t-51.5 -21.5h-82q-32 0 -52 21.5 t-20 51.5zM546 1438v82q0 32 21.5 52.5t51.5 20.5h82q30 0 51.5 -20.5t21.5 -52.5v-82q0 -30 -22 -51.5t-51 -21.5h-82q-30 0 -51.5 22t-21.5 51z" />
<glyph unicode="&#xf1;" d="M91 73v992q0 30 21.5 51.5t51.5 21.5h992q30 0 51.5 -21.5t21.5 -51.5v-992q0 -30 -21.5 -51.5t-51.5 -21.5h-82q-30 0 -51.5 21.5t-21.5 51.5v764q0 30 -21.5 51.5t-51.5 21.5h-537q-30 0 -51 -21.5t-21 -51.5v-764q0 -30 -22 -51.5t-51 -21.5h-82q-30 0 -51.5 21.5 t-21.5 51.5zM307 1493q0 30 21 52l189 187q20 20 50 20t52 -20l55 -55q20 -23 50 -23t52 21l55 57q23 20 52 20q30 0 50 -20l57 -57q20 -20 20 -50t-20 -50l-189 -189q-20 -20 -50 -21q-30 0 -50 21l-59 57q-20 20 -50 20t-50 -20l-55 -57q-23 -20 -52 -21q-30 0 -50 21 l-57 57q-20 20 -21 50z" />
<glyph unicode="&#xf2;" d="M91 73v992q0 30 21.5 51.5t51.5 21.5h992q30 0 51.5 -21.5t21.5 -51.5v-992q0 -30 -21.5 -51.5t-51.5 -21.5h-992q-30 0 -51.5 21.5t-21.5 51.5zM319 303q0 -32 21.5 -53.5t53.5 -21.5h532q32 0 53.5 21.5t21.5 53.5v532q0 32 -21.5 53.5t-53.5 21.5h-532 q-32 0 -53.5 -21.5t-21.5 -53.5v-532zM466 1622q0 30 21 53l57 57q20 20 50 20q32 0 52 -20l187 -187q20 -20 20 -52q0 -30 -20 -50l-57 -57q-23 -20 -52 -21q-30 0 -50 21l-187 186q-20 20 -21 50z" />
<glyph unicode="&#xf3;" d="M91 73v992q0 30 21.5 51.5t51.5 21.5h992q30 0 51.5 -21.5t21.5 -51.5v-992q0 -30 -21.5 -51.5t-51.5 -21.5h-992q-30 0 -51.5 21.5t-21.5 51.5zM319 303q0 -32 21.5 -53.5t53.5 -21.5h532q32 0 53.5 21.5t21.5 53.5v532q0 32 -21.5 53.5t-53.5 21.5h-532 q-32 0 -53.5 -21.5t-21.5 -53.5v-532zM466 1493q0 32 21 52l187 187q20 20 50 20t52 -20l57 -57q20 -23 20 -53t-20 -50l-187 -186q-20 -20 -52 -21q-30 0 -50 21l-57 57q-20 20 -21 50z" />
<glyph unicode="&#xf4;" d="M91 73v992q0 30 21.5 51.5t51.5 21.5h992q30 0 51.5 -21.5t21.5 -51.5v-992q0 -30 -21.5 -51.5t-51.5 -21.5h-992q-30 0 -51.5 21.5t-21.5 51.5zM319 303q0 -32 21.5 -53.5t53.5 -21.5h532q32 0 53.5 21.5t21.5 53.5v532q0 32 -21.5 53.5t-53.5 21.5h-532 q-32 0 -53.5 -21.5t-21.5 -53.5v-532zM373 1495q0 30 23 52l214 212q20 23 50 23t50 -23l214 -212q20 -23 20 -52q0 -30 -20 -50l-55 -57q-23 -20 -52 -20q-30 0 -50 20l-57 57q-20 20 -50 20t-50 -20l-59 -57q-20 -20 -50 -20t-50 20l-55 57q-23 20 -23 50z" />
<glyph unicode="&#xf5;" d="M91 73v992q0 30 21.5 51.5t51.5 21.5h992q30 0 51.5 -21.5t21.5 -51.5v-992q0 -30 -21.5 -51.5t-51.5 -21.5h-992q-30 0 -51.5 21.5t-21.5 51.5zM307 1493q0 30 21 52l189 187q20 20 50 20t52 -20l55 -55q20 -23 50 -23t52 21l55 57q23 20 52 20q30 0 50 -20l57 -57 q20 -20 20 -50t-20 -50l-189 -189q-20 -20 -50 -21q-30 0 -50 21l-59 57q-20 20 -50 20t-50 -20l-55 -57q-23 -20 -52 -21q-30 0 -50 21l-57 57q-20 20 -21 50zM319 303q0 -32 21.5 -53.5t53.5 -21.5h532q32 0 53.5 21.5t21.5 53.5v532q0 32 -21.5 53.5t-53.5 21.5h-532 q-32 0 -53.5 -21.5t-21.5 -53.5v-532z" />
<glyph unicode="&#xf6;" d="M91 73v992q0 30 21.5 51.5t51.5 21.5h992q30 0 51.5 -21.5t21.5 -51.5v-992q0 -30 -21.5 -51.5t-51.5 -21.5h-992q-30 0 -51.5 21.5t-21.5 51.5zM319 303q0 -32 21.5 -53.5t53.5 -21.5h532q32 0 53.5 21.5t21.5 53.5v532q0 32 -21.5 53.5t-53.5 21.5h-532 q-32 0 -53.5 -21.5t-21.5 -53.5v-532zM319 1438v82q0 32 21.5 52.5t53.5 20.5h82q30 0 51 -20.5t21 -52.5v-82q0 -30 -21.5 -51.5t-50.5 -21.5h-82q-32 0 -53.5 22t-21.5 51zM774 1438v82q0 32 21.5 52.5t51.5 20.5h81q32 0 54 -20.5t22 -52.5v-82q0 -30 -22 -51.5 t-54 -21.5h-81q-30 0 -51.5 22t-21.5 51z" />
<glyph unicode="&#xf8;" d="M91 73v992q0 30 21.5 51.5t51.5 21.5h992q30 0 51.5 -21.5t21.5 -51.5v-992q0 -30 -21.5 -51.5t-51.5 -21.5h-992q-30 0 -51.5 21.5t-21.5 51.5zM319 303q0 -30 21.5 -51.5t50.5 -21.5h310q30 0 51.5 21.5t21.5 51.5v79q0 32 21.5 53.5t51.5 21.5h81q30 0 51.5 20.5 t21.5 52.5v307q0 30 -21.5 51.5t-51.5 21.5h-309q-30 0 -51.5 -21.5t-21.5 -51.5v-82q0 -30 -21.5 -51t-51.5 -21h-82q-30 0 -51 -22t-21 -51v-307z" />
<glyph unicode="&#xf9;" d="M91 73v992q0 30 21.5 51.5t51.5 21.5h82q30 0 51.5 -21.5t21.5 -51.5v-765q0 -30 21.5 -51t50.5 -21h537q30 0 51.5 21.5t21.5 50.5v765q0 30 21.5 51.5t51.5 21.5h82q30 0 51.5 -21.5t21.5 -51.5v-992q0 -30 -21.5 -51.5t-51.5 -21.5h-992q-30 0 -51.5 21.5t-21.5 51.5z M466 1622q0 30 21 53l57 57q20 20 50 20q32 0 52 -20l187 -187q20 -20 20 -52q0 -30 -20 -50l-57 -57q-23 -20 -52 -21q-30 0 -50 21l-187 186q-20 20 -21 50z" />
<glyph unicode="&#xfa;" d="M91 73v992q0 30 21.5 51.5t51.5 21.5h82q30 0 51.5 -21.5t21.5 -51.5v-765q0 -30 21.5 -51t50.5 -21h537q30 0 51.5 21.5t21.5 50.5v765q0 30 21.5 51.5t51.5 21.5h82q30 0 51.5 -21.5t21.5 -51.5v-992q0 -30 -21.5 -51.5t-51.5 -21.5h-992q-30 0 -51.5 21.5t-21.5 51.5z M466 1493q0 32 21 52l187 187q20 20 50 20t52 -20l57 -57q20 -23 20 -53t-20 -50l-187 -186q-20 -20 -52 -21q-30 0 -50 21l-57 57q-20 20 -21 50z" />
<glyph unicode="&#xfb;" d="M91 73v992q0 30 21.5 51.5t51.5 21.5h82q30 0 51.5 -21.5t21.5 -51.5v-765q0 -30 21.5 -51t50.5 -21h537q30 0 51.5 21.5t21.5 50.5v765q0 30 21.5 51.5t51.5 21.5h82q30 0 51.5 -21.5t21.5 -51.5v-992q0 -30 -21.5 -51.5t-51.5 -21.5h-992q-30 0 -51.5 21.5t-21.5 51.5z M373 1495q0 30 23 52l214 212q20 23 50 23t50 -23l214 -212q20 -23 20 -52q0 -30 -20 -50l-55 -57q-23 -20 -52 -20q-30 0 -50 20l-57 57q-20 20 -50 20t-50 -20l-59 -57q-20 -20 -50 -20t-50 20l-55 57q-23 20 -23 50z" />
<glyph unicode="&#xfc;" d="M91 73v992q0 30 21.5 51.5t51.5 21.5h82q30 0 51.5 -21.5t21.5 -51.5v-765q0 -30 21.5 -51t50.5 -21h537q30 0 51.5 21.5t21.5 50.5v765q0 30 21.5 51.5t51.5 21.5h82q30 0 51.5 -21.5t21.5 -51.5v-992q0 -30 -21.5 -51.5t-51.5 -21.5h-992q-30 0 -51.5 21.5t-21.5 51.5z M319 1438v82q0 32 21.5 52.5t53.5 20.5h82q30 0 51 -20.5t21 -52.5v-82q0 -30 -21.5 -51.5t-50.5 -21.5h-82q-32 0 -53.5 22t-21.5 51zM774 1438v82q0 32 21.5 52.5t51.5 20.5h81q32 0 54 -20.5t22 -52.5v-82q0 -30 -22 -51.5t-54 -21.5h-81q-30 0 -51.5 22t-21.5 51z" />
<glyph unicode="&#xff;" d="M91 73v992q0 30 21.5 51.5t51.5 21.5h82q30 0 51.5 -21.5t21.5 -51.5v-765q0 -30 21.5 -51t50.5 -21h537q30 0 51.5 21.5t21.5 50.5v765q0 30 21.5 51.5t51.5 21.5h82q30 0 51.5 -21.5t21.5 -51.5v-992q0 -30 -21.5 -51.5t-51.5 -21.5h-309q-30 0 -51.5 -21.5 t-21.5 -51.5v-309q0 -30 -22 -51.5t-51 -21.5h-82q-30 0 -51.5 21.5t-21.5 51.5v309q0 30 -21.5 51.5t-51.5 21.5h-309q-30 0 -51.5 21.5t-21.5 51.5zM319 1438v82q0 32 21.5 52.5t53.5 20.5h82q30 0 51 -20.5t21 -52.5v-82q0 -30 -21.5 -51.5t-50.5 -21.5h-82 q-32 0 -53.5 22t-21.5 51zM774 1438v82q0 32 21.5 52.5t51.5 20.5h81q32 0 54 -20.5t22 -52.5v-82q0 -30 -22 -51.5t-54 -21.5h-81q-30 0 -51.5 22t-21.5 51z" />
<glyph unicode="&#x152;" d="M91 73v992q0 30 21.5 51.5t51.5 21.5h992q32 0 52.5 -21.5t20.5 -51.5v-80q0 -30 -20.5 -51.5t-52.5 -21.5h-309q-30 0 -51.5 -21.5t-21.5 -50.5v-82q0 -32 21.5 -52.5t51.5 -20.5h309q32 0 52.5 -21.5t20.5 -53.5v-82q0 -32 -20.5 -53.5t-52.5 -21.5h-309 q-30 0 -51.5 -20.5t-21.5 -52.5v-82q0 -30 21.5 -51.5t51.5 -21.5h309q32 0 52.5 -21.5t20.5 -51.5v-79q0 -30 -20.5 -51.5t-52.5 -21.5h-992q-30 0 -51.5 21.5t-21.5 51.5zM319 298q0 -30 21.5 -51.5t50.5 -21.5h82q32 0 52.5 21.5t20.5 51.5v542q0 30 -20.5 51t-52.5 21 h-82q-30 0 -51 -21.5t-21 -50.5v-542z" />
<glyph unicode="&#x153;" horiz-adv-x="1324" d="M91 73v992q0 30 21.5 51.5t51.5 21.5h997q30 0 51 -21.5t21 -51.5v-537q0 -32 -21.5 -53.5t-50.5 -21.5h-310q-32 0 -53.5 -20.5t-21.5 -52.5v-82q0 -30 21.5 -51.5t53.5 -21.5h310q30 0 51 -21.5t21 -51.5v-79q0 -30 -21.5 -51.5t-50.5 -21.5h-997q-30 0 -51.5 21.5 t-21.5 51.5zM319 298q0 -30 21.5 -51.5t50.5 -21.5h82q32 0 52.5 21.5t20.5 51.5v542q0 30 -20.5 51t-52.5 21h-82q-30 0 -51 -21.5t-21 -50.5v-542zM776 758q0 -32 21.5 -52.5t53.5 -20.5h82q30 0 51.5 20.5t21.5 52.5v82q0 30 -21.5 51t-51.5 21h-82q-32 0 -53.5 -21.5 t-21.5 -50.5v-82z" />
<glyph unicode="&#x178;" d="M91 300v765q0 30 21.5 51.5t51.5 21.5h82q30 0 51.5 -21.5t21.5 -51.5v-537q0 -30 21.5 -51.5t50.5 -21.5h537q30 0 51.5 21.5t21.5 51.5v537q0 30 21.5 51.5t51.5 21.5h82q30 0 51.5 -21.5t21.5 -51.5v-765q0 -30 -21.5 -51t-51.5 -21h-309q-30 0 -51.5 -22t-21.5 -51 v-82q0 -30 -22 -51.5t-51 -21.5h-82q-30 0 -51.5 21.5t-21.5 51.5v82q0 30 -21.5 51.5t-51.5 21.5h-309q-30 0 -51.5 21.5t-21.5 50.5zM319 1438v82q0 32 21.5 52.5t53.5 20.5h82q30 0 51 -20.5t21 -52.5v-82q0 -30 -21.5 -51.5t-50.5 -21.5h-82q-32 0 -53.5 22t-21.5 51z M774 1438v82q0 32 21.5 52.5t51.5 20.5h81q32 0 54 -20.5t22 -52.5v-82q0 -30 -22 -51.5t-54 -21.5h-81q-30 0 -51.5 22t-21.5 51z" />
<glyph unicode="&#x2c6;" horiz-adv-x="753" d="M91 1495q0 30 21 52l213 212q20 23 50 23t53 -23l211 -212q23 -23 23 -52q0 -30 -20 -50l-57 -57q-20 -20 -50 -20t-50 20l-57 57q-23 20 -53 20t-50 -20l-56 -57q-20 -20 -51 -20q-30 0 -50 20l-56 57q-20 20 -21 50z" />
<glyph unicode="&#x2dc;" horiz-adv-x="885" d="M91 1493q0 30 21 52l188 187q20 20 50 20q32 0 53 -20l54 -55q20 -23 50 -23t53 21l54 57q23 20 53 20t50 -20l57 -57q20 -20 20 -50t-20 -50l-189 -189q-20 -20 -50 -21q-30 0 -50 21l-57 57q-23 20 -53 20t-50 -20l-54 -57q-20 -20 -53 -21q-30 0 -50 21l-56 57 q-20 20 -21 50z" />
<glyph unicode="&#x2000;" horiz-adv-x="1024" />
<glyph unicode="&#x2001;" horiz-adv-x="2048" />
<glyph unicode="&#x2002;" horiz-adv-x="1024" />
<glyph unicode="&#x2003;" horiz-adv-x="2048" />
<glyph unicode="&#x2004;" horiz-adv-x="682" />
<glyph unicode="&#x2005;" horiz-adv-x="512" />
<glyph unicode="&#x2006;" horiz-adv-x="341" />
<glyph unicode="&#x2007;" horiz-adv-x="341" />
<glyph unicode="&#x2008;" horiz-adv-x="256" />
<glyph unicode="&#x2009;" horiz-adv-x="409" />
<glyph unicode="&#x200a;" horiz-adv-x="113" />
<glyph unicode="&#x2010;" horiz-adv-x="864" d="M91 528v82q0 30 21.5 51.5t51.5 21.5h537q30 0 51.5 -22t21.5 -51v-82q0 -30 -22 -51.5t-51 -21.5h-537q-30 0 -51.5 21.5t-21.5 51.5z" />
<glyph unicode="&#x2011;" horiz-adv-x="864" d="M91 528v82q0 30 21.5 51.5t51.5 21.5h537q30 0 51.5 -22t21.5 -51v-82q0 -30 -22 -51.5t-51 -21.5h-537q-30 0 -51.5 21.5t-21.5 51.5z" />
<glyph unicode="&#x2012;" horiz-adv-x="864" d="M91 528v82q0 30 21.5 51.5t51.5 21.5h537q30 0 51.5 -22t21.5 -51v-82q0 -30 -22 -51.5t-51 -21.5h-537q-30 0 -51.5 21.5t-21.5 51.5z" />
<glyph unicode="&#x2013;" horiz-adv-x="750" d="M91 528v82q0 30 21.5 51.5t51.5 21.5h423q30 0 51.5 -22t21.5 -51v-82q0 -30 -21.5 -51.5t-51.5 -21.5h-423q-30 0 -51.5 21.5t-21.5 51.5z" />
<glyph unicode="&#x2014;" d="M91 528v82q0 30 21.5 51.5t51.5 21.5h992q30 0 51.5 -22t21.5 -51v-82q0 -30 -21.5 -51.5t-51.5 -21.5h-992q-30 0 -51.5 21.5t-21.5 51.5z" />
<glyph unicode="&#x2018;" horiz-adv-x="637" d="M91 755v310q0 30 21.5 51.5t51.5 21.5h82q32 0 52.5 -21.5t20.5 -51.5v-82q0 -30 21.5 -51.5t50.5 -21.5h82q32 0 52.5 -21.5t20.5 -51.5v-82q0 -32 -20.5 -52t-52.5 -20h-309q-30 0 -51.5 20.5t-21.5 51.5z" />
<glyph unicode="&#x2019;" horiz-adv-x="637" d="M91 983v82q0 30 21.5 51.5t51.5 21.5h309q32 0 52.5 -21.5t20.5 -51.5v-310q0 -32 -20.5 -52t-52.5 -20h-82q-30 0 -51 20.5t-21 51.5v82q0 30 -22 51.5t-51 21.5h-82q-30 0 -51.5 20.5t-21.5 52.5z" />
<glyph unicode="&#x201a;" horiz-adv-x="637" d="M91 73v82q0 32 21.5 52.5t51.5 20.5h82q30 0 51.5 21.5t21.5 50.5v82q0 32 21.5 52.5t50.5 20.5h82q32 0 52.5 -20.5t20.5 -52.5v-309q0 -30 -20.5 -51.5t-52.5 -21.5h-309q-30 0 -51.5 21.5t-21.5 51.5z" />
<glyph unicode="&#x201c;" horiz-adv-x="1001" d="M91 755v310q0 30 21.5 51.5t51.5 21.5h82q32 0 52.5 -21.5t20.5 -51.5v-82q0 -30 21.5 -51.5t50.5 -21.5h82q32 0 52.5 -21.5t20.5 -51.5v-82q0 -32 -20.5 -52t-52.5 -20h-309q-30 0 -51.5 20.5t-21.5 51.5zM683 755v310q0 30 21.5 51.5t50.5 21.5h82q32 0 52.5 -21.5 t20.5 -51.5v-310q0 -32 -20.5 -52t-52.5 -20h-82q-30 0 -51 20.5t-21 51.5z" />
<glyph unicode="&#x201d;" horiz-adv-x="1001" d="M91 755v310q0 30 21.5 51.5t51.5 21.5h82q30 0 51.5 -21.5t21.5 -51.5v-310q0 -32 -22 -52t-51 -20h-82q-30 0 -51.5 20.5t-21.5 51.5zM455 983v82q0 30 21.5 51.5t51.5 21.5h309q32 0 52.5 -21.5t20.5 -51.5v-310q0 -32 -20.5 -52t-52.5 -20h-82q-30 0 -51 20.5 t-21 51.5v82q0 30 -22 51.5t-51 21.5h-82q-30 0 -51.5 20.5t-21.5 52.5z" />
<glyph unicode="&#x201e;" d="M91 73v82q0 32 21.5 52.5t51.5 20.5h82q30 0 51.5 21.5t21.5 50.5v82q0 32 21.5 52.5t50.5 20.5h82q32 0 52.5 -20.5t20.5 -52.5v-309q0 -30 -20.5 -51.5t-52.5 -21.5h-309q-30 0 -51.5 21.5t-21.5 51.5zM774 73v82q0 32 21.5 52.5t51.5 20.5h81q30 0 51.5 21.5 t21.5 50.5v82q0 32 21.5 52.5t51.5 20.5h82q32 0 52.5 -20.5t20.5 -52.5v-309q0 -30 -20.5 -51.5t-52.5 -21.5h-309q-30 0 -51.5 21.5t-21.5 51.5z" />
<glyph unicode="&#x2022;" horiz-adv-x="637" d="M91 414v310q0 30 21.5 51t51.5 21h309q30 0 51.5 -21.5t21.5 -50.5v-310q0 -30 -21.5 -51.5t-51.5 -21.5h-309q-30 0 -51.5 22t-21.5 51z" />
<glyph unicode="&#x2026;" d="M91 73v82q0 30 21.5 51.5t51.5 21.5h82q32 0 52.5 -22t20.5 -51v-82q0 -30 -20.5 -51.5t-52.5 -21.5h-82q-30 0 -51.5 21.5t-21.5 51.5zM546 73v82q0 30 21.5 51.5t51.5 21.5h82q30 0 51.5 -22t21.5 -51v-82q0 -30 -22 -51.5t-51 -21.5h-82q-30 0 -51.5 21.5t-21.5 51.5z M1001 73v82q0 30 21.5 51.5t51.5 21.5h82q30 0 51.5 -22t21.5 -51v-82q0 -30 -21.5 -51.5t-51.5 -21.5h-82q-30 0 -51.5 21.5t-21.5 51.5z" />
<glyph unicode="&#x202f;" horiz-adv-x="409" />
<glyph unicode="&#x2039;" horiz-adv-x="603" d="M91 569q0 30 21 52l218 216q20 23 52 23q30 0 53 -23l57 -54q20 -23 20 -53t-20 -52l-60 -57q-20 -23 -20 -52q0 -30 20 -52l60 -57q20 -23 20 -53t-20 -52l-57 -55q-23 -23 -53 -22q-32 0 -52 22l-218 217q-20 23 -21 52z" />
<glyph unicode="&#x203a;" horiz-adv-x="603" d="M91 407q0 30 21 53l59 57q20 23 20 52q0 30 -20 52l-59 57q-20 23 -21 52q0 30 21 53l59 54q20 23 50 23q32 0 52 -23l219 -216q20 -23 20 -52t-20 -52l-219 -217q-20 -23 -52 -22q-30 0 -50 22l-59 55q-20 23 -21 52z" />
<glyph unicode="&#x205f;" horiz-adv-x="512" />
<glyph unicode="&#x2122;" horiz-adv-x="1017" d="M91 1099q0 39 73 39h232q75 0 75 -39q0 -36 -75 -36h-5q-30 0 -51 -22t-21 -53v-155q0 -73 -39 -73q-36 0 -37 73v155q0 32 -21.5 53.5t-53.5 21.5h-4q-73 0 -73 36zM546 833v232q0 30 21.5 51.5t51.5 21.5h232q32 0 53.5 -21.5t21.5 -51.5v-232q0 -75 -39 -75t-38 75 v155q0 75 -37 75q-39 0 -38 -75v-155q0 -75 -39 -75q-36 0 -36 75v155q0 75 -39 75t-39 -75v-155q0 -75 -36 -75q-39 0 -39 75z" />
<glyph unicode="&#xe000;" horiz-adv-x="1103" d="M0 0v1104h1104v-1104h-1104z" />
</font>
</defs>
</svg>
